<svg width="375" height="812" viewBox="0 0 375 812" fill="none" xmlns="http://www.w3.org/2000/svg">
<path opacity="0.1" fill-rule="evenodd" clip-rule="evenodd" d="M60.7344 758.562C127.466 758.562 181.562 704.466 181.562 637.734C181.562 571.003 127.466 516.906 60.7344 516.906C-5.99716 516.906 -60.0938 571.003 -60.0938 637.734C-60.0938 704.466 -5.99716 758.562 60.7344 758.562Z" fill="#C4D0FB"/>
<path opacity="0.2" fill-rule="evenodd" clip-rule="evenodd" d="M64 850C179.428 850 273 756.428 273 641C273 525.572 179.428 432 64 432C-51.4275 432 -145 525.572 -145 641C-145 756.428 -51.4275 850 64 850Z" stroke="#C4D0FB"/>
<path opacity="0.1" fill-rule="evenodd" clip-rule="evenodd" d="M398.734 140.562C465.466 140.562 519.562 86.4659 519.562 19.7344C519.562 -46.9972 465.466 -101.094 398.734 -101.094C332.003 -101.094 277.906 -46.9972 277.906 19.7344C277.906 86.4659 332.003 140.562 398.734 140.562Z" fill="#C4D0FB"/>
<path opacity="0.2" fill-rule="evenodd" clip-rule="evenodd" d="M402 232C517.428 232 611 138.428 611 23C611 -92.4275 517.428 -186 402 -186C286.572 -186 193 -92.4275 193 23C193 138.428 286.572 232 402 232Z" stroke="#C4D0FB"/>
<path opacity="0.1" fill-rule="evenodd" clip-rule="evenodd" d="M106 154C119.255 154 130 143.255 130 130C130 116.745 119.255 106 106 106C92.7452 106 82 116.745 82 130C82 143.255 92.7452 154 106 154Z" fill="#C4D0FB"/>
<path opacity="0.1" fill-rule="evenodd" clip-rule="evenodd" d="M313 460C318.523 460 323 455.523 323 450C323 444.477 318.523 440 313 440C307.477 440 303 444.477 303 450C303 455.523 307.477 460 313 460Z" fill="#C4D0FB"/>
</svg>
