<?xml version="1.0" encoding="UTF-8" standalone="no"?>
<!-- Created with Inkscape (http://www.inkscape.org/) -->

<svg
   version="1.1"
   id="svg2"
   width="588.98669"
   height="590.40002"
   viewBox="0 0 588.98669 590.40002"
   sodipodi:docname="7718867.eps"
   xmlns:inkscape="http://www.inkscape.org/namespaces/inkscape"
   xmlns:sodipodi="http://sodipodi.sourceforge.net/DTD/sodipodi-0.dtd"
   xmlns="http://www.w3.org/2000/svg"
   xmlns:svg="http://www.w3.org/2000/svg">
  <defs
     id="defs6" />
  <sodipodi:namedview
     id="namedview4"
     pagecolor="#ffffff"
     bordercolor="#000000"
     borderopacity="0.25"
     inkscape:showpageshadow="2"
     inkscape:pageopacity="0.0"
     inkscape:pagecheckerboard="0"
     inkscape:deskcolor="#d1d1d1" />
  <g
     id="g8"
     inkscape:groupmode="layer"
     inkscape:label="ink_ext_XXXXXX"
     transform="matrix(1.3333333,0,0,-1.3333333,0,590.4)">
    <g
       id="g10"
       transform="scale(0.1)">
      <path
         d="m 196.574,1672.29 60.082,-28.5 c 0,0 23.938,50.44 76.789,26.47 27.453,-12.44 33.106,-36.98 32.36,-53.36 -0.867,-19.03 -11.461,-36.15 -27.367,-46.63 -18.161,-11.97 -47.739,-16.65 -84.844,9.7 l -41.832,-88.17 59.41,-28.19 15.207,32.06 c 0,0 93.539,-18 137.105,73.83 41.688,87.85 -27.421,145.64 -61.144,161.64 -25.793,12.24 -116.606,47.69 -165.766,-58.85"
         style="fill:#dadbd8;fill-opacity:1;fill-rule:nonzero;stroke:none"
         id="path12" />
      <path
         d="m 234.313,1384.08 -60.293,28.6 26.714,56.31 60.293,-28.6 -26.714,-56.31"
         style="fill:#dadbd8;fill-opacity:1;fill-rule:nonzero;stroke:none"
         id="path14" />
      <path
         d="m 780.012,697.5 67.859,-19.191 c 0,0 16.117,56.98 75.617,41.25 30.907,-8.168 41.153,-32.817 43.266,-50.079 2.453,-20.05 -5.602,-39.832 -20.379,-53.601 -16.879,-15.719 -46.98,-25.84 -90.434,-4.84 l -28.168,-99.59 67.106,-18.98 10.238,36.203 c 0,0 100.993,-2.281 130.323,101.43 28.07,99.23 -54.405,147.449 -92.495,158.218 -29.132,8.239 -130.355,29.27 -162.933,-90.82"
         style="fill:#dadbd8;fill-opacity:1;fill-rule:nonzero;stroke:none"
         id="path16" />
      <path
         d="m 870.391,402.789 -68.102,19.262 17.988,63.609 68.102,-19.258 -17.988,-63.613"
         style="fill:#dadbd8;fill-opacity:1;fill-rule:nonzero;stroke:none"
         id="path18" />
      <path
         d="m 3625.93,2838.34 65.04,-1.21 c 27.42,-30.79 63.42,-54.63 105.82,-67.34 121.92,-36.54 250.39,32.68 286.93,154.6 36.54,121.93 -32.68,250.39 -154.61,286.93 -121.92,36.54 -250.38,-32.67 -286.93,-154.6 -15.25,-50.91 -12.02,-102.94 5.74,-148.96 l -0.07,0.1 -21.92,-69.52"
         style="fill:#ffffff;fill-opacity:1;fill-rule:nonzero;stroke:none"
         id="path20" />
      <path
         d="m 3625.93,2838.34 c -0.08,-0.06 0.32,1.4 1.17,4.34 0.95,3.22 2.25,7.59 3.91,13.22 3.66,12.14 8.95,29.64 15.78,52.3 l 1.37,0.73 0.59,-0.43 0.07,-0.1 -1.93,-1.04 c -10.76,27.42 -19.87,66.27 -14.32,112.15 2.62,22.85 9.53,47.03 20.8,70.97 11.24,23.92 27.39,47.51 48.75,68.01 21.29,20.5 47.75,37.86 77.91,49.39 30.11,11.56 63.93,17.21 98.48,14.98 69.04,-3.62 140.48,-42.8 181.07,-107.53 20.56,-32.82 33.23,-69.95 35.56,-107.14 2.75,-37.12 -3.54,-73.83 -16.83,-106.42 -13.47,-32.58 -34.1,-60.77 -58.33,-82.8 -24.26,-22.09 -52.13,-38.03 -80.41,-47.83 -56.93,-19.76 -113.8,-14.59 -156.73,1.55 -43.45,16.17 -73.65,42.02 -92.66,63.74 l 0.77,-0.35 c -21,0.67 -37.3,1.18 -48.67,1.54 -5.22,0.2 -9.3,0.35 -12.33,0.47 -2.74,0.12 -4.09,0.2 -4.02,0.25 0.08,0.06 1.58,0.08 4.45,0.1 3.1,0 7.28,0 12.62,0 11.21,-0.06 27.29,-0.14 47.99,-0.25 l 0.77,-0.36 c 19.17,-21.23 49.29,-46.4 92.24,-61.98 42.46,-15.57 98.36,-20.25 154.14,-0.61 27.71,9.74 54.97,25.49 78.66,47.21 23.68,21.66 43.79,49.3 56.91,81.21 12.94,31.94 19.02,67.85 16.3,104.14 -2.31,36.35 -14.74,72.65 -34.83,104.74 -39.69,63.27 -109.44,101.66 -177.01,105.34 -67.96,4.72 -131.44,-22.37 -173.03,-62.55 -21.04,-20.02 -37.02,-43.1 -48.21,-66.55 -11.23,-23.46 -18.2,-47.21 -20.96,-69.7 -5.83,-45.15 2.73,-83.6 12.99,-110.92 l -0.63,-1.44 -1.31,0.4 -0.07,0.1 1.95,0.31 c -7.29,-22.17 -12.92,-39.3 -16.83,-51.18 -1.9,-5.68 -3.39,-10.1 -4.47,-13.35 -1.03,-3.03 -1.67,-4.66 -1.67,-4.66"
         style="fill:#dadbd8;fill-opacity:1;fill-rule:nonzero;stroke:none"
         id="path22" />
      <path
         d="m 3786.51,3022.19 h 40.74 c 0,0 0,34.2 35.54,34.81 18.46,0.32 28.04,-11.77 31.92,-21.03 4.52,-10.76 3.15,-23.02 -2.9,-33 -6.91,-11.39 -22.05,-21.74 -49.5,-16.91 v -59.78 h 40.28 v 21.73 c 0,0 56.49,14.61 56.49,76.87 0,59.57 -53.42,73.4 -76.28,73.4 -17.49,0 -77.06,-4.22 -76.29,-76.09"
         style="fill:#dadbd8;fill-opacity:1;fill-rule:nonzero;stroke:none"
         id="path24" />
      <path
         d="m 3883.08,2872.58 h -40.88 v 38.19 h 40.88 v -38.19"
         style="fill:#dadbd8;fill-opacity:1;fill-rule:nonzero;stroke:none"
         id="path26" />
      <path
         d="m 1089.12,4071.2 h 191.01 c 0,0 0,160.37 166.66,163.25 86.56,1.49 131.43,-55.21 149.67,-98.65 21.17,-50.43 14.76,-107.92 -13.61,-154.69 -32.39,-53.41 -103.39,-101.97 -232.11,-79.28 v -280.29 h 188.87 v 101.89 c 0,0 264.88,68.48 264.88,360.39 0,279.3 -250.47,344.17 -357.68,344.17 -81.99,0 -361.29,-19.82 -357.69,-356.79"
         style="fill:#dadbd8;fill-opacity:1;fill-rule:nonzero;stroke:none"
         id="path28" />
      <path
         d="m 1541.89,3369.77 h -191.68 v 179.02 h 191.68 v -179.02"
         style="fill:#dadbd8;fill-opacity:1;fill-rule:nonzero;stroke:none"
         id="path30" />
      <path
         d="M 919.266,3405.88 769.031,3446 c 0,0 -33.687,-126.14 -165.379,-93.4 -68.398,17.01 -91.785,71.04 -97.004,109.03 -6.058,44.12 11.059,87.99 43.196,118.82 36.703,35.21 102.742,58.48 199.226,13.6 l 58.875,220.47 -148.554,39.68 -21.407,-80.15 c 0,0 -222.726,1.78 -284.046,-227.83 -58.668,-219.68 124.714,-323.32 209.042,-345.84 64.493,-17.23 288.34,-60.3 356.286,205.5"
         style="fill:#e7e8e5;fill-opacity:1;fill-rule:nonzero;stroke:none"
         id="path32" />
      <path
         d="m 710.484,4052.7 150.762,-40.26 -37.605,-140.81 -150.762,40.26 37.605,140.81"
         style="fill:#e7e8e5;fill-opacity:1;fill-rule:nonzero;stroke:none"
         id="path34" />
      <path
         d="m 3815.16,1718.97 124.87,-13.46 c 0,0 11.31,104.84 120.46,94.98 56.7,-5.13 82.04,-45.36 90.9,-75.04 10.28,-34.47 2.04,-71.6 -19.8,-100.18 -24.94,-32.63 -74.78,-59.37 -157.33,-35.47 l -19.76,-183.24 123.48,-13.31 7.18,66.62 c 0,0 177.99,26.09 198.57,216.93 19.68,182.59 -139.49,242.66 -209.58,250.21 -53.6,5.78 -237.59,12.51 -258.99,-208.04"
         style="fill:#e7e8e5;fill-opacity:1;fill-rule:nonzero;stroke:none"
         id="path36" />
      <path
         d="m 4061.72,1228.5 -125.31,13.51 12.62,117.03 125.31,-13.51 -12.62,-117.03"
         style="fill:#e7e8e5;fill-opacity:1;fill-rule:nonzero;stroke:none"
         id="path38" />
      <path
         d="m 175.09,970.051 131.234,14.148 c 0,0 -11.879,110.181 102.418,124.501 59.36,7.44 94.395,-28.19 110.141,-56.69 18.281,-33.08 18.137,-73.049 2.109,-107.291 C 502.691,905.621 457.512,867 367.387,873.051 l 20.761,-192.582 129.77,13.992 -7.551,70.008 c 0,0 176.926,66.672 155.301,267.231 -20.688,191.91 -197.586,217.92 -271.25,209.98 -56.332,-6.07 -246.766,-40.38 -219.328,-271.629"
         style="fill:#f3f2f1;fill-opacity:1;fill-rule:nonzero;stroke:none"
         id="path40" />
      <path
         d="m 538.133,521.648 -131.695,-14.199 -13.262,123 131.695,14.192 13.262,-122.993"
         style="fill:#f3f2f1;fill-opacity:1;fill-rule:nonzero;stroke:none"
         id="path42" />
      <path
         d="m 2000.01,3926.62 115.42,33.69 c 0,0 -28.28,96.92 71.92,128.05 52.05,16.18 89.17,-10.17 107.85,-33.21 21.69,-26.74 27.96,-62.61 19.07,-95.88 -10.16,-38 -44.49,-79.86 -126.28,-88.86 l 49.44,-169.38 114.13,33.31 -17.97,61.58 c 0,0 147.99,88.11 96.5,264.51 -49.27,168.79 -212.07,163.81 -276.86,144.9 -49.55,-14.47 -214.84,-75.71 -153.22,-278.71"
         style="fill:#f3f2f1;fill-opacity:1;fill-rule:nonzero;stroke:none"
         id="path44" />
      <path
         d="m 2397.35,3582.6 -115.83,-33.81 -31.58,108.18 115.83,33.81 31.58,-108.18"
         style="fill:#f3f2f1;fill-opacity:1;fill-rule:nonzero;stroke:none"
         id="path46" />
      <path
         d="m 4061.24,2250.6 93.23,27.21 c 0,0 -22.85,78.28 58.09,103.42 42.03,13.06 72.01,-8.22 87.1,-26.82 17.52,-21.6 22.58,-50.57 15.4,-77.44 -8.2,-30.69 -35.93,-64.5 -101.99,-71.77 l 39.93,-136.8 92.18,26.9 -14.51,49.74 c 0,0 119.53,71.16 77.94,213.63 -39.79,136.33 -171.29,132.3 -223.62,117.03 -40.01,-11.68 -173.51,-61.15 -123.75,-225.1"
         style="fill:#f3f2f1;fill-opacity:1;fill-rule:nonzero;stroke:none"
         id="path48" />
      <path
         d="m 4382.17,1972.74 -93.56,-27.3 -25.5,87.37 93.55,27.31 25.51,-87.38"
         style="fill:#f3f2f1;fill-opacity:1;fill-rule:nonzero;stroke:none"
         id="path50" />
      <path
         d="M 4365.83,2.60156 C 4365.83,1.16016 3388.43,0 2183.02,0 977.195,0 0,1.16016 0,2.60156 c 0,1.4375 977.195,2.60938 2183.02,2.60938 1205.41,0 2182.81,-1.17188 2182.81,-2.60938"
         style="fill:#17282f;fill-opacity:1;fill-rule:nonzero;stroke:none"
         id="path52" />
      <path
         d="m 3809.13,3648.71 c 0,-216.13 -175.21,-391.33 -391.34,-391.33 -216.12,0 -391.33,175.2 -391.33,391.33 0,216.13 175.21,391.33 391.33,391.33 216.13,0 391.34,-175.2 391.34,-391.33"
         style="fill:#ffffff;fill-opacity:1;fill-rule:nonzero;stroke:none"
         id="path54" />
      <path
         d="m 3809.13,3648.71 c 0,0 -0.29,2.15 -0.59,6.33 -0.28,4.37 -0.68,10.54 -1.2,18.58 -0.24,4.09 -0.51,8.65 -0.81,13.67 -0.53,5.01 -1.6,10.44 -2.48,16.35 -0.94,5.9 -1.95,12.25 -3.03,19.04 -0.82,6.84 -3.36,13.79 -5.12,21.33 -6.89,30.22 -21.03,65.94 -43.34,103.79 -22.49,37.7 -54.93,77.08 -99.11,110.5 -5.55,4.14 -11.16,8.32 -16.84,12.54 -5.92,3.88 -12.15,7.43 -18.31,11.23 -6.29,3.57 -12.25,7.92 -19,10.98 -6.66,3.19 -13.4,6.42 -20.21,9.69 -3.41,1.61 -6.84,3.24 -10.28,4.87 -3.58,1.3 -7.18,2.61 -10.8,3.93 -7.23,2.63 -14.53,5.29 -21.91,7.98 -7.44,2.46 -15.22,4.04 -22.93,6.13 -7.78,1.77 -15.43,4.51 -23.55,5.33 -16.09,2.28 -32.35,5.6 -49.2,5.69 -8.39,0.29 -16.85,1.11 -25.37,0.97 -8.51,-0.44 -17.1,-0.88 -25.74,-1.33 -4.32,-0.3 -8.68,-0.27 -13,-0.84 l -12.97,-2 c -8.66,-1.43 -17.46,-2.45 -26.17,-4.25 -17.17,-4.67 -34.95,-8.16 -51.86,-15.22 -17.45,-5.59 -33.85,-14.21 -50.72,-22.3 -8.21,-4.45 -16.08,-9.64 -24.21,-14.46 -3.98,-2.55 -8.23,-4.72 -12.02,-7.6 l -11.45,-8.57 c -15.8,-10.85 -29.63,-24.42 -44.1,-37.49 -13.08,-14.47 -26.82,-28.64 -38.1,-45.07 l -8.94,-11.96 -7.83,-12.79 -7.82,-12.88 c -2.72,-4.24 -5.2,-8.62 -7.24,-13.25 -4.38,-9.11 -8.78,-18.25 -13.2,-27.42 -3.5,-9.57 -7.02,-19.16 -10.55,-28.8 -12.67,-39.02 -19.5,-80.46 -20.06,-122.64 0.55,-42.19 7.36,-83.66 20.03,-122.69 3.53,-9.64 7.05,-19.24 10.55,-28.81 4.42,-9.18 8.82,-18.32 13.2,-27.42 l 3.32,-6.81 3.93,-6.45 7.81,-12.88 7.83,-12.8 8.94,-11.97 c 11.28,-16.43 25.02,-30.6 38.11,-45.08 14.47,-13.07 28.3,-26.65 44.11,-37.5 l 11.45,-8.57 c 3.79,-2.88 8.04,-5.05 12.02,-7.6 8.13,-4.83 16,-10.01 24.21,-14.47 16.87,-8.09 33.28,-16.71 50.73,-22.3 16.91,-7.06 34.7,-10.55 51.87,-15.22 8.71,-1.8 17.51,-2.82 26.17,-4.26 l 12.97,-1.99 c 4.32,-0.57 8.69,-0.54 13,-0.84 8.65,-0.45 17.23,-0.9 25.75,-1.34 8.52,-0.13 16.98,0.69 25.37,0.98 16.85,0.09 33.11,3.41 49.2,5.69 8.12,0.83 15.77,3.57 23.56,5.33 7.7,2.1 15.49,3.68 22.93,6.14 7.37,2.68 14.67,5.34 21.91,7.98 3.61,1.31 7.21,2.62 10.8,3.93 3.44,1.63 6.87,3.26 10.28,4.87 6.8,3.27 13.54,6.5 20.21,9.69 6.74,3.06 12.7,7.41 18.99,10.99 6.16,3.79 12.4,7.34 18.31,11.22 5.68,4.23 11.29,8.41 16.84,12.54 44.18,33.43 76.62,72.81 99.1,110.51 22.31,37.85 36.45,73.56 43.34,103.78 1.76,7.54 4.3,14.49 5.11,21.33 1.08,6.79 2.09,13.14 3.03,19.04 0.88,5.91 1.95,11.33 2.48,16.34 0.3,5.02 0.57,9.58 0.81,13.67 0.52,8.04 0.92,14.21 1.2,18.58 0.3,4.18 0.59,6.33 0.59,6.33 0,0 0.07,-2.15 -0.06,-6.34 -0.16,-4.38 -0.38,-10.57 -0.68,-18.63 -0.17,-4.11 -0.36,-8.7 -0.57,-13.74 -0.44,-5.03 -1.44,-10.48 -2.24,-16.43 -0.87,-5.94 -1.8,-12.33 -2.8,-19.16 -0.74,-6.89 -3.21,-13.88 -4.91,-21.48 -6.62,-30.45 -20.56,-66.5 -42.79,-104.79 -22.42,-38.11 -54.92,-78 -99.38,-111.94 -5.58,-4.19 -11.23,-8.43 -16.95,-12.73 -5.95,-3.94 -12.23,-7.55 -18.44,-11.41 -6.33,-3.63 -12.34,-8.04 -19.14,-11.16 -6.73,-3.25 -13.52,-6.54 -20.39,-9.86 -3.44,-1.65 -6.89,-3.3 -10.37,-4.96 -3.61,-1.33 -7.25,-2.67 -10.9,-4.01 -7.3,-2.69 -14.67,-5.4 -22.11,-8.14 -7.52,-2.51 -15.38,-4.14 -23.16,-6.28 -7.87,-1.8 -15.6,-4.59 -23.8,-5.46 -16.26,-2.35 -32.71,-5.74 -49.75,-5.89 -8.48,-0.31 -17.03,-1.15 -25.65,-1.04 -8.62,0.42 -17.3,0.85 -26.05,1.28 -4.37,0.29 -8.78,0.26 -13.15,0.82 l -13.13,1.99 c -8.77,1.43 -17.68,2.45 -26.5,4.25 -17.39,4.69 -35.4,8.2 -52.54,15.31 -17.67,5.63 -34.3,14.32 -51.39,22.5 -8.33,4.5 -16.31,9.73 -24.55,14.61 -4.04,2.57 -8.34,4.77 -12.18,7.68 l -11.61,8.66 c -16.02,10.98 -30.05,24.7 -44.72,37.94 -13.28,14.63 -27.2,28.99 -38.65,45.62 l -9.06,12.12 -7.95,12.96 -7.93,13.04 -3.97,6.54 -3.37,6.89 c -4.45,9.23 -8.92,18.49 -13.4,27.79 -3.55,9.69 -7.12,19.42 -10.7,29.18 -12.87,39.56 -19.77,81.58 -20.33,124.33 0.56,42.73 7.49,84.74 20.36,124.28 3.58,9.76 7.15,19.49 10.7,29.17 4.48,9.3 8.95,18.56 13.39,27.78 2.07,4.7 4.6,9.13 7.35,13.43 l 7.93,13.04 7.95,12.95 9.06,12.12 c 11.44,16.62 25.37,30.97 38.64,45.6 14.67,13.24 28.7,26.95 44.72,37.93 l 11.6,8.66 c 3.84,2.9 8.15,5.1 12.18,7.68 8.24,4.87 16.22,10.11 24.54,14.61 17.09,8.17 33.72,16.86 51.39,22.49 17.14,7.11 35.15,10.62 52.53,15.3 8.82,1.81 17.73,2.82 26.5,4.25 l 13.13,1.99 c 4.37,0.57 8.78,0.54 13.15,0.83 8.74,0.43 17.43,0.86 26.04,1.28 8.62,0.11 17.17,-0.73 25.65,-1.04 17.04,-0.15 33.48,-3.53 49.74,-5.89 8.2,-0.87 15.94,-3.65 23.8,-5.46 7.78,-2.14 15.65,-3.77 23.16,-6.27 7.44,-2.74 14.82,-5.45 22.12,-8.14 3.65,-1.34 7.28,-2.68 10.9,-4.01 3.47,-1.66 6.93,-3.31 10.37,-4.96 6.86,-3.32 13.66,-6.61 20.38,-9.86 6.8,-3.12 12.81,-7.53 19.15,-11.16 6.21,-3.86 12.48,-7.47 18.44,-11.41 5.71,-4.29 11.37,-8.53 16.95,-12.73 44.46,-33.93 76.96,-73.82 99.38,-111.94 22.24,-38.28 36.18,-74.33 42.81,-104.79 1.69,-7.6 4.17,-14.59 4.91,-21.48 1,-6.83 1.93,-13.22 2.8,-19.17 0.8,-5.94 1.8,-11.39 2.24,-16.43 0.21,-5.04 0.4,-9.62 0.57,-13.74 0.3,-8.05 0.52,-14.25 0.68,-18.63 0.13,-4.19 0.06,-6.34 0.06,-6.34"
         style="fill:#17282f;fill-opacity:1;fill-rule:nonzero;stroke:none"
         id="path56" />
      <path
         d="m 3278.57,3715.79 h 74.35 c 0,0 0,62.42 64.87,63.54 33.7,0.58 51.16,-21.49 58.26,-38.4 8.24,-19.63 5.75,-42.01 -5.29,-60.21 -12.61,-20.79 -40.25,-39.69 -90.35,-30.86 v -109.11 h 73.51 v 39.67 c 0,0 103.11,26.65 103.11,140.28 0,108.71 -97.5,133.96 -139.23,133.96 -31.91,0 -140.63,-7.71 -139.23,-138.87"
         style="fill:#f2575d;fill-opacity:1;fill-rule:nonzero;stroke:none"
         id="path58" />
      <path
         d="m 3454.81,3442.75 h -74.61 v 69.68 h 74.61 v -69.68"
         style="fill:#f2575d;fill-opacity:1;fill-rule:nonzero;stroke:none"
         id="path60" />
      <path
         d="m 3294.74,3187.82 c 0,-33.82 -27.42,-61.24 -61.24,-61.24 -33.82,0 -61.24,27.42 -61.24,61.24 0,33.82 27.42,61.23 61.24,61.23 33.82,0 61.24,-27.41 61.24,-61.23"
         style="fill:#ffffff;fill-opacity:1;fill-rule:nonzero;stroke:none"
         id="path62" />
      <path
         d="m 3294.74,3187.82 c -0.55,-0.03 -0.37,5.45 -2.9,14.7 -2.51,9.08 -8.72,22.33 -22.41,32.51 -13.22,10.2 -34.96,15.89 -55.97,8.05 -10.35,-3.76 -20.22,-10.82 -27.22,-20.58 -7.21,-9.62 -11.25,-21.95 -11.37,-34.67 0.12,-12.73 4.16,-25.07 11.37,-34.69 7,-9.76 16.87,-16.83 27.22,-20.58 21.02,-7.85 42.76,-2.16 55.98,8.05 13.68,10.17 19.9,23.43 22.4,32.5 2.53,9.25 2.35,14.74 2.9,14.71 0.18,0 0.29,-1.35 0.32,-3.94 0.09,-2.58 -0.2,-6.43 -1.25,-11.26 -1.98,-9.52 -7.91,-23.74 -22.14,-34.94 -13.74,-11.22 -37,-17.87 -59.85,-9.63 -11.25,3.94 -22.02,11.51 -29.69,22.06 -7.89,10.42 -12.36,23.87 -12.47,37.72 0.11,13.83 4.59,27.29 12.47,37.7 7.67,10.55 18.44,18.12 29.69,22.06 22.85,8.23 46.11,1.58 59.85,-9.63 14.23,-11.21 20.16,-25.42 22.14,-34.94 1.05,-4.83 1.34,-8.68 1.25,-11.27 -0.03,-2.59 -0.14,-3.93 -0.32,-3.93"
         style="fill:#17282f;fill-opacity:1;fill-rule:nonzero;stroke:none"
         id="path64" />
      <path
         d="m 3312.47,1824.29 c 101.77,-345.32 125.59,-710.8 64.34,-1065.931 -7.56,-43.859 11.7,-88.867 57.62,-101.488 39.71,-10.91 93.87,13.469 101.49,57.621 66.36,384.758 46.14,778.788 -64.35,1153.658 -29.95,101.63 -189.24,58.37 -159.1,-43.86"
         style="fill:#17282f;fill-opacity:1;fill-rule:nonzero;stroke:none"
         id="path66" />
      <path
         d="m 3745.45,2244.17 c -46.89,161.01 -176.2,292.1 -330.1,334.62 30.96,115.17 -18.07,248.16 -78.98,349.04 -60.91,100.88 -170.86,173.42 -282.54,191.92 -115.97,19.22 -187.96,8.76 -300.33,-27.2 -67.08,128.47 -196.01,198.14 -333.71,214.64 -137.71,16.5 -286.01,-61 -341.82,-195.39 -19.97,141.29 -179.19,225.07 -310.63,193.18 -131.45,-31.88 -231.27,-148.51 -292.81,-275.63 L 3240.31,1129.83 c 156.51,-62.4 349.58,2.54 443.46,149.15 93.89,146.62 79.49,360.68 -33.08,491.7 104.53,126.99 141.65,312.48 94.76,473.49"
         style="fill:#f2575d;fill-opacity:1;fill-rule:nonzero;stroke:none"
         id="path68" />
      <path
         d="M 2185.69,5.44922 2057.12,19.3086 2154.23,920.129 2282.81,906.27 2185.69,5.44922"
         style="fill:#17282f;fill-opacity:1;fill-rule:nonzero;stroke:none"
         id="path70" />
      <path
         d="M 2486.53,5.44922 2615.11,19.3086 2517.99,920.129 2389.41,906.27 2486.53,5.44922"
         style="fill:#17282f;fill-opacity:1;fill-rule:nonzero;stroke:none"
         id="path72" />
      <path
         d="m 859.836,2788.92 c 52.68,147.42 149.144,259.23 296.554,320.22 148.66,61.5 316.46,62.43 474.88,34.45 64.94,-11.48 131.66,-28.92 181.72,-71.85 50.06,-42.92 78.17,-117.77 49.32,-177.07 137.34,77.54 315.49,77 452.35,-1.38 136.87,-78.37 227.5,-231.74 230.13,-389.43 143.1,11.44 293.28,-20.19 406.82,-108.04 113.54,-87.85 183.77,-236.59 158.05,-377.82 93.57,8.17 183.3,-52.06 233.11,-131.69 49.82,-79.62 66.09,-175.56 72.71,-269.25 4.09,-57.83 4.68,-117.39 -14.64,-172.06 -9.4,-26.6 -23.4,-51.68 -29.51,-79.23 -7.41,-33.34 -2.8,-67.97 -1.78,-102.1 4.74,-157.9 -73.85,-315.94 -202.62,-407.451 -128.76,-91.5 -303.86,-113.75 -451.42,-57.348 -163.89,-169.199 -457.59,-190.289 -643.97,-46.23 -121.26,-40.68 -249.7,-69.989 -376.55,-53.672 -64.71,8.32 -128.7,29.812 -183.98,64.742 -50.66,32.008 -79.71,93.871 -127.41,123.168 -32.88,20.211 -68.69,14.762 -105.39,9.32 -17.68,-2.617 -35.56,-5.25 -53.43,-5 -64.15,0.86 -128.22,16.633 -185.09,46.422 -108.456,56.809 -189.147,162.719 -218.612,281.549 -5.969,24.07 -10.39,49.61 -25.551,69.23 -13.871,17.95 -34.902,28.53 -54.496,39.96 -122.164,71.27 -210.222,198.37 -234.011,337.79 -23.79,139.41 17.132,288.53 108.75,396.27 0,0 -92.497,237.22 -5.465,449.68 87.031,212.45 249.531,276.82 249.531,276.82"
         style="fill:#f2575d;fill-opacity:1;fill-rule:nonzero;stroke:none"
         id="path74" />
      <path
         d="m 2131.95,713.461 c -21.2,11.301 -41.5,24.309 -60.69,39.078 0.09,0.043 0.18,0.063 0.28,0.102 19.1,-14.77 39.32,-27.789 60.42,-39.102 l -0.01,-0.078 M 1560.8,736.84 c -17.54,7.949 -34.53,17.062 -50.77,27.32 -50.65,32 -79.71,93.86 -127.41,123.172 -3.19,1.957 -6.41,3.68 -9.66,5.18 3.58,-1.602 7.13,-3.473 10.64,-5.633 47.7,-29.297 76.75,-91.16 127.41,-123.168 15.94,-10.07 32.6,-19.02 49.79,-26.871 m -501.96,191.402 c -6.8,3.078 -13.51,6.36 -20.13,9.817 -108.456,56.812 -189.147,162.721 -218.608,281.561 -5.969,24.07 -10.391,49.6 -25.555,69.22 -13.871,17.95 -34.902,28.54 -54.496,39.97 -122.164,71.26 -210.223,198.37 -234.012,337.78 -9.449,55.39 -8.527,112.28 1.57,167.53 0.153,-0.8 0.305,-1.61 0.461,-2.4 -9.754,-54.63 -10.386,-110.85 -1.05,-165.57 23.789,-139.42 111.847,-266.52 234.011,-337.79 19.594,-11.43 40.625,-22.01 54.496,-39.96 15.161,-19.62 19.582,-45.16 25.551,-69.23 29.465,-118.83 110.156,-224.74 218.612,-281.549 6.3,-3.301 12.68,-6.43 19.15,-9.379 m 2306.03,171.678 c -6.54,0 -13.09,0.18 -19.62,0.54 0.68,2.06 1.36,4.14 2.01,6.2 6.18,-0.32 12.39,-0.48 18.58,-0.48 14.69,0 29.39,0.9 44.01,2.67 -0.03,-2.03 -0.07,-4.12 -0.11,-6.15 -14.9,-1.84 -29.9,-2.78 -44.87,-2.78 m 208.98,63.24 c -0.01,1.86 -0.01,3.75 -0.02,5.62 43.32,28.24 81.26,65.41 109.94,110.2 28.38,44.31 46.86,94.78 55.73,147.25 -8.41,-54.72 -27.2,-107.46 -56.7,-153.54 -28.47,-44.44 -66.04,-81.38 -108.95,-109.53"
         style="fill:#a7a9a8;fill-opacity:1;fill-rule:nonzero;stroke:none"
         id="path76" />
      <path
         d="m 3409.74,1102.7 c 0.04,2.03 0.08,4.12 0.11,6.15 57.85,7.01 114.43,27.63 163.98,59.93 0.01,-1.87 0.01,-3.76 0.02,-5.62 -49.54,-32.51 -106.17,-53.31 -164.11,-60.46"
         style="fill:#0f191d;fill-opacity:1;fill-rule:nonzero;stroke:none"
         id="path78" />
      <path
         d="m 3365.84,1106.18 c -6.19,0 -12.4,0.16 -18.58,0.48 16.04,50.66 23.89,103.84 22.29,157.01 -0.11,3.87 -0.27,7.75 -0.46,11.63 122.22,1.43 244.73,65.03 313.71,172.74 25.94,40.52 43.58,86.2 53.19,133.84 10.15,-51.07 11.42,-104.24 3.51,-155.65 -8.87,-52.47 -27.35,-102.94 -55.73,-147.25 -28.68,-44.79 -66.62,-81.96 -109.94,-110.2 -49.55,-32.3 -106.13,-52.92 -163.98,-59.93 -14.62,-1.77 -29.32,-2.67 -44.01,-2.67"
         style="fill:#cc4341;fill-opacity:1;fill-rule:nonzero;stroke:none"
         id="path80" />
      <path
         d="m 2156.7,701.23 c -8.36,3.821 -16.63,7.911 -24.75,12.231 l 0.01,0.078 c 8.12,-4.359 16.37,-8.457 24.74,-12.309"
         style="fill:#0f191d;fill-opacity:1;fill-rule:nonzero;stroke:none"
         id="path82" />
      <path
         d="m 2363.24,657.379 c -71.18,0 -142.22,14.461 -206.54,43.851 -8.37,3.852 -16.62,7.95 -24.74,12.309 -21.1,11.313 -41.32,24.332 -60.42,39.102 -0.1,-0.039 -0.19,-0.059 -0.28,-0.102 -0.23,0.18 -0.47,0.371 -0.7,0.543 -97.89,-32.832 -200.46,-58.262 -303.1,-58.262 -24.5,0 -49.01,1.45 -73.45,4.59 -45.7,5.879 -91.04,18.32 -133.21,37.43 -17.19,7.851 -33.85,16.801 -49.79,26.871 -50.66,32.008 -79.71,93.871 -127.41,123.168 -3.51,2.16 -7.06,4.031 -10.64,5.633 -14.78,6.84 -30.09,9.148 -45.77,9.148 -16.33,0 -33.05,-2.512 -49.96,-5.019 -16.91,-2.5 -34.02,-5.012 -51.11,-5.012 -0.77,0 -1.55,0 -2.32,0.012 -56.69,0.769 -113.31,13.168 -164.96,36.601 -6.47,2.949 -12.85,6.078 -19.15,9.379 -108.456,56.809 -189.147,162.719 -218.612,281.549 -5.969,24.07 -10.39,49.61 -25.551,69.23 -13.871,17.95 -34.902,28.53 -54.496,39.96 -122.164,71.27 -210.222,198.37 -234.011,337.79 -9.336,54.72 -8.704,110.94 1.05,165.57 26.266,-135.38 112.821,-258.05 231.981,-327.56 19.594,-11.43 40.625,-22.02 54.496,-39.97 15.164,-19.62 19.586,-45.15 25.555,-69.22 29.461,-118.84 110.152,-224.75 218.608,-281.56 56.88,-29.79 120.94,-45.55 185.09,-46.42 0.77,-0.01 1.54,-0.01 2.32,-0.01 17.09,0 34.2,2.51 51.11,5.01 16.91,2.51 33.63,5.02 49.96,5.02 13.6,0 26.94,-1.74 39.89,-6.67 0.79,-11.88 2.05,-23.56 3.72,-34.95 3.38,-21.49 8.24,-41.929 13.89,-61.089 11.69,-38.219 26.69,-71.071 41.12,-97.512 14.42,-26.48 27.75,-46.93 37.39,-60.719 4.72,-6.968 8.74,-12.129 11.36,-15.699 2.59,-3.441 4.06,-5.25 4.27,-5.25 0,0 0.01,0 0.01,0.008 0.15,0.101 -1.03,2.113 -3.42,5.84 -2.7,4.16 -6.19,9.543 -10.53,16.23 -9.11,14.102 -21.91,34.77 -35.82,61.321 -13.94,26.5 -28.46,59.25 -39.78,97.152 -5.46,19 -10.17,39.228 -13.44,60.478 -1.5,10.44 -2.65,21.11 -3.43,31.96 3.43,-1.56 6.83,-3.36 10.2,-5.43 47.7,-29.31 76.76,-91.16 127.41,-123.168 55.28,-34.93 119.27,-56.43 183.98,-64.75 24.45,-3.141 48.95,-4.59 73.46,-4.59 102.63,0 205.21,25.43 303.09,58.258 83.21,-64.309 187.79,-95.711 292.68,-95.7 130.05,0.012 260.57,48.282 351.29,141.942 54.1,-20.68 111.89,-30.793 169.75,-30.781 99.96,0 200.12,30.168 281.67,88.129 83.52,59.35 145.9,146.71 178.16,243.86 6.91,-0.41 13.83,-0.61 20.76,-0.61 1.4,0 2.82,0.01 4.22,0.03 0.19,-3.88 0.35,-7.76 0.46,-11.63 1.6,-53.17 -6.25,-106.35 -22.29,-157.01 -0.65,-2.06 -1.33,-4.14 -2.01,-6.2 -0.38,0.02 -0.76,0.05 -1.14,0.07 -32.26,-97.15 -94.64,-184.51 -178.16,-243.858 -81.56,-57.961 -181.7,-88.133 -281.67,-88.133 -57.85,0 -115.66,10.102 -169.75,30.781 C 2623.8,705.648 2493.3,657.379 2363.24,657.379"
         style="fill:#cc4341;fill-opacity:1;fill-rule:nonzero;stroke:none"
         id="path84" />
      <path
         d="m 1549.19,1738.76 c -0.16,-0.09 -1.51,1.76 -3.95,5.34 -2.55,3.5 -5.68,9.09 -10.69,15.6 -9.43,13.42 -24.45,31.97 -45.75,52.06 -21.24,20.13 -49.48,41.15 -84.07,58.5 -34.49,17.39 -75.63,30.43 -120.02,34.84 -44.45,3.89 -87.3,-1.32 -124.42,-12.02 -37.21,-10.65 -68.85,-26.09 -93.45,-41.94 -24.65,-15.81 -42.84,-31.25 -54.59,-42.69 -6.13,-5.48 -10.23,-10.39 -13.395,-13.36 -3.054,-3.07 -4.726,-4.63 -4.863,-4.51 -0.137,0.12 1.274,1.91 4.086,5.22 2.912,3.2 6.802,8.36 12.742,14.09 11.39,11.95 29.36,27.97 54.02,44.34 24.6,16.42 56.47,32.41 94.12,43.46 37.55,11.1 81.05,16.55 126.24,12.6 45.11,-4.48 86.85,-17.88 121.69,-35.74 34.95,-17.83 63.31,-39.43 84.44,-60.12 21.21,-20.65 35.91,-39.72 44.89,-53.57 4.78,-6.74 7.65,-12.52 9.92,-16.21 2.15,-3.78 3.21,-5.8 3.05,-5.89"
         style="fill:#17282f;fill-opacity:1;fill-rule:nonzero;stroke:none"
         id="path86" />
      <path
         d="m 1688.32,1146.48 c -0.09,0.01 -0.07,1.2 0.05,3.54 0.17,2.61 0.4,6.04 0.68,10.39 0.37,4.67 0.82,10.29 1.35,16.88 1.06,6.67 2.29,14.29 3.66,22.83 3.15,17.11 8.44,37.79 16.58,61.17 8.91,23.03 19.79,49.22 36.5,75.6 32.32,52.86 83.35,110.47 156.34,150.01 36.21,19.84 77.8,34.29 122.22,41.14 44.39,6.93 91.52,6.44 138.42,-1.92 93.95,-17.07 176.47,-65.12 231.66,-126.48 55.86,-61.16 84.85,-133.58 91.56,-195.47 7.02,-62.44 -6.83,-112.97 -20.35,-144.72 -13.94,-32.03 -26.57,-46.92 -26.57,-46.92 -0.08,0.05 0.5,1.11 1.71,3.11 1.36,2.23 3.14,5.16 5.41,8.86 4.5,7.93 11.08,19.69 17.57,35.72 12.86,31.75 25.98,81.91 18.57,143.52 -7.09,61.09 -36.08,132.44 -91.45,192.68 -54.67,60.39 -136.23,107.71 -229.05,124.58 -46.33,8.25 -92.86,8.77 -136.69,2 -43.86,-6.7 -84.89,-20.84 -120.73,-40.32 -72.22,-38.81 -123.05,-95.56 -155.49,-147.72 -16.77,-26.03 -27.79,-51.91 -36.9,-74.67 -8.34,-23.12 -13.89,-43.59 -17.32,-60.55 -1.54,-8.48 -2.92,-16.04 -4.12,-22.65 -0.72,-6.55 -1.33,-12.13 -1.83,-16.77 -0.5,-4.32 -0.89,-7.73 -1.19,-10.33 -0.3,-2.32 -0.5,-3.51 -0.59,-3.51"
         style="fill:#17282f;fill-opacity:1;fill-rule:nonzero;stroke:none"
         id="path88" />
      <path
         d="m 2985.06,1032.15 c 0.08,-0.17 -1.41,-1 -4.32,-2.43 -2.97,-1.32 -7.16,-3.75 -13,-5.81 -11.44,-4.69 -28.75,-9.91 -50.77,-12.78 -21.98,-2.92 -48.8,-2.69 -77.59,3.51 -28.72,6.12 -59.26,18.84 -86.57,39.22 -27.03,20.76 -47.57,46.71 -61.25,72.7 -13.77,26.03 -21.28,51.79 -24.42,73.74 -3.21,21.97 -2.88,40.05 -1.47,52.33 0.4,6.17 1.6,10.87 2.06,14.08 0.6,3.19 0.99,4.85 1.17,4.82 1.48,-0.02 -5.4,-27.32 1.88,-70.64 3.55,-21.53 11.29,-46.68 25.01,-72.06 13.63,-25.34 33.81,-50.57 60.17,-70.82 26.62,-19.86 56.37,-32.44 84.46,-38.68 28.14,-6.33 54.45,-6.96 76.13,-4.54 43.68,4.75 68.09,18.77 68.51,17.36"
         style="fill:#17282f;fill-opacity:1;fill-rule:nonzero;stroke:none"
         id="path90" />
      <path
         d="m 1466.38,2966.68 c -0.36,0.06 0.19,4.63 1.49,12.88 1.19,8.26 3.73,20.1 7.6,34.52 3.79,14.45 9.5,31.35 16.94,49.67 7.68,18.22 17.23,37.8 28.91,57.42 11.85,19.53 24.67,37.16 37.16,52.49 12.7,15.16 24.94,28.13 35.93,38.26 10.92,10.18 20.18,17.97 26.91,22.9 6.68,5.01 10.46,7.64 10.68,7.36 0.61,-0.77 -14,-12.03 -35.03,-32.91 -10.57,-10.38 -22.41,-23.48 -34.77,-38.64 -12.15,-15.33 -24.7,-32.84 -36.41,-52.14 -11.55,-19.4 -21.12,-38.69 -28.96,-56.61 -7.6,-18.02 -13.61,-34.62 -17.82,-48.82 -8.58,-28.37 -11.68,-46.56 -12.63,-46.38"
         style="fill:#17282f;fill-opacity:1;fill-rule:nonzero;stroke:none"
         id="path92" />
      <path
         d="m 1075.71,2813.48 c -0.26,-1.03 -17.97,4.13 -47.31,7.22 -14.66,1.66 -32.24,2.18 -51.689,1.39 -19.43,-1.13 -40.711,-3.78 -62.609,-8.82 -21.848,-5.29 -42.075,-12.44 -59.965,-20.12 -17.746,-8 -33.239,-16.33 -45.606,-24.37 -24.859,-15.89 -38.386,-28.42 -39.082,-27.61 -0.238,0.26 3.035,3.48 9.199,9.08 3.04,2.86 6.868,6.22 11.629,9.74 4.719,3.57 9.911,7.91 16.239,11.87 12.25,8.53 27.765,17.32 45.664,25.67 18.035,8.03 38.539,15.44 60.722,20.8 22.239,5.13 43.883,7.67 63.606,8.56 19.738,0.53 37.552,-0.39 52.312,-2.53 7.43,-0.71 14.02,-2.27 19.84,-3.35 5.83,-1.02 10.76,-2.32 14.76,-3.51 8.01,-2.26 12.38,-3.67 12.29,-4.02"
         style="fill:#17282f;fill-opacity:1;fill-rule:nonzero;stroke:none"
         id="path94" />
      <path
         d="m 1075.71,1983.98 c 0.11,-0.14 -1.24,-1.38 -3.92,-3.61 -2.74,-2.15 -6.56,-5.65 -12.04,-9.38 -10.66,-7.88 -27.03,-18.14 -48.66,-28.02 -21.59,-9.92 -48.766,-18.82 -79.922,-23.55 -31.098,-4.77 -66.223,-4.84 -101.977,2.07 -35.695,7.29 -68.132,20.79 -95.043,37.1 -26.98,16.29 -48.683,34.91 -64.835,52.33 -16.204,17.41 -27.407,33.14 -34.243,44.5 -3.64,5.54 -5.824,10.24 -7.535,13.27 -1.625,3.09 -2.398,4.75 -2.238,4.83 0.402,0.23 4.125,-6.08 11.473,-17 7.308,-10.94 18.855,-26.18 35.203,-43.05 16.297,-16.89 37.937,-34.95 64.636,-50.76 26.629,-15.83 58.551,-28.95 93.594,-36.11 35.11,-6.78 69.613,-6.87 100.27,-2.43 30.711,4.4 57.613,12.8 79.127,22.17 21.56,9.34 38.06,19 49,26.32 10.97,7.28 16.82,11.68 17.11,11.32"
         style="fill:#17282f;fill-opacity:1;fill-rule:nonzero;stroke:none"
         id="path96" />
      <path
         d="m 830.41,1515.4 c 0.953,-0.4 -6.898,-17.8 -15.109,-47.3 -4.196,-14.71 -7.942,-32.57 -10.871,-52.55 -2.617,-20.04 -4.235,-42.23 -3.836,-65.54 0.629,-23.32 3.226,-45.42 6.722,-65.32 3.813,-19.84 8.34,-37.52 13.184,-52.03 9.508,-29.1 18.113,-46.14 17.184,-46.58 -0.325,-0.16 -2.618,4.01 -6.504,11.71 -2,3.83 -4.305,8.59 -6.571,14.28 -2.316,5.68 -5.234,12.05 -7.593,19.41 -5.34,14.5 -10.297,32.28 -14.414,52.31 -3.801,20.09 -6.579,42.48 -7.215,66.1 -0.407,23.63 1.379,46.11 4.293,66.34 3.226,20.2 7.394,38.18 12.086,52.9 2.035,7.46 4.668,13.95 6.73,19.72 2.016,5.79 4.106,10.64 5.934,14.56 3.547,7.87 5.656,12.13 5.98,11.99"
         style="fill:#17282f;fill-opacity:1;fill-rule:nonzero;stroke:none"
         id="path98" />
      <path
         d="m 1478.84,795.129 c -0.14,-0.109 -1.61,1.703 -4.28,5.242 -2.62,3.57 -6.64,8.731 -11.36,15.699 -9.64,13.789 -22.97,34.239 -37.39,60.719 -14.43,26.441 -29.43,59.293 -41.12,97.512 -5.65,19.16 -10.51,39.599 -13.89,61.089 -3.16,21.52 -4.82,44.04 -4.74,67.1 0.52,92.55 26.15,174.09 52.33,228.13 13.01,27.22 25.57,48.19 34.94,62.18 4.53,7.1 8.57,12.26 11.12,15.88 2.62,3.57 4.07,5.39 4.22,5.29 0.14,-0.11 -1.02,-2.13 -3.36,-5.89 -2.26,-3.8 -6.02,-9.13 -10.27,-16.37 -8.81,-14.27 -20.82,-35.41 -33.31,-62.64 -25.16,-54.09 -49.95,-134.98 -50.46,-226.61 -0.08,-22.8 1.52,-45.03 4.58,-66.31 3.27,-21.25 7.98,-41.478 13.44,-60.478 11.32,-37.902 25.84,-70.652 39.78,-97.152 13.91,-26.551 26.71,-47.219 35.82,-61.321 4.34,-6.687 7.83,-12.07 10.53,-16.23 2.39,-3.727 3.57,-5.739 3.42,-5.84"
         style="fill:#17282f;fill-opacity:1;fill-rule:nonzero;stroke:none"
         id="path100" />
      <path
         d="m 1378.2,1218.21 c 0.11,-0.22 -3.63,-2.42 -11.2,-4.11 -7.52,-1.75 -19.01,-2.19 -32.54,0.77 -13.58,2.8 -28.82,9.17 -44.82,17.66 -16.01,8.55 -32.62,19.87 -48.24,33.83 -31.5,27.91 -51.96,60.83 -63.05,85.76 -5.46,12.57 -8.97,23.09 -10.97,30.46 -1.88,7.42 -2.74,11.54 -2.4,11.63 0.98,0.29 4.99,-16.17 16.71,-40.53 11.79,-24.19 32.31,-56.08 63.17,-83.43 15.32,-13.69 31.5,-24.89 47.07,-33.51 15.6,-8.57 30.35,-15.13 43.37,-18.29 16.5,-4.36 29.14,-2.95 36.3,-1.54 4.27,0.84 6.58,1.68 6.6,1.3"
         style="fill:#17282f;fill-opacity:1;fill-rule:nonzero;stroke:none"
         id="path102" />
      <path
         d="m 2102.3,736.422 c -0.19,-0.301 -3.44,1.387 -9.17,4.719 -5.78,3.269 -13.82,8.519 -23.47,15.441 -19.26,13.828 -44.37,35.43 -67.38,63.59 -22.94,28.226 -39.02,57.187 -48.67,78.848 -4.83,10.839 -8.35,19.781 -10.38,26.101 -2.11,6.289 -3.1,9.809 -2.77,9.938 0.84,0.312 6.05,-13.368 16.48,-34.457 10.42,-21.071 26.77,-49.313 49.38,-77.141 22.69,-27.762 47.03,-49.481 65.56,-63.941 18.55,-14.469 30.9,-22.34 30.42,-23.098"
         style="fill:#17282f;fill-opacity:1;fill-rule:nonzero;stroke:none"
         id="path104" />
      <path
         d="m 2773.44,1048.14 c 0.36,0.01 0.72,-3.76 1.04,-10.57 0.35,-6.82 0.57,-16.69 0.53,-28.89 -0.19,-24.348 -1.34,-58.371 -9.66,-94.969 -8.3,-36.66 -23.57,-67.539 -36.66,-88.16 -6.69,-10.25 -12.39,-18.36 -16.79,-23.602 -4.28,-5.328 -6.78,-8.16 -7.06,-7.937 -0.78,0.578 8.39,12.578 20.7,33.449 12.15,20.898 26.57,51.379 34.73,87.418 8.19,36 9.94,69.641 11.06,93.891 0.98,24.29 1.33,39.37 2.11,39.37"
         style="fill:#17282f;fill-opacity:1;fill-rule:nonzero;stroke:none"
         id="path106" />
      <path
         d="m 3196.69,1565.16 c 0.09,0.16 1.7,-0.61 4.71,-2.22 2.96,-1.66 7.46,-3.95 12.94,-7.4 10.86,-7.03 26.28,-17.99 42.5,-34.69 16.17,-16.67 32.96,-39.11 46.76,-66.61 6.9,-13.75 12.99,-28.71 18.48,-44.49 5.23,-15.87 9.74,-32.58 13.44,-49.89 14.27,-69.53 13.55,-134.03 12.24,-180.08 -0.78,-23.09 -1.92,-41.74 -2.77,-54.62 -0.44,-5.94 -0.81,-10.84 -1.1,-14.82 -0.31,-3.39 -0.56,-5.17 -0.74,-5.16 -0.18,0.01 -0.28,1.8 -0.31,5.2 0.03,3.99 0.07,8.9 0.13,14.87 0.27,13.67 0.65,32.14 1.11,54.62 0.37,45.97 0.48,110.12 -13.66,178.92 -3.66,17.13 -8.08,33.65 -13.18,49.34 -5.36,15.59 -11.26,30.38 -17.94,43.97 -13.35,27.2 -29.53,49.47 -45.13,66.21 -15.63,16.78 -30.52,28.05 -40.95,35.54 -10.68,7.13 -16.73,10.95 -16.53,11.31"
         style="fill:#17282f;fill-opacity:1;fill-rule:nonzero;stroke:none"
         id="path108" />
      <path
         d="m 3079.81,1454.29 c -0.21,0.29 3.46,3.42 10.26,8.81 6.84,5.32 16.54,13.3 28.25,23.43 23.45,20.22 54.2,50.13 83.67,87.05 29.4,36.99 51.68,73.66 66.15,101.03 7.25,13.68 12.85,24.92 16.51,32.78 3.73,7.83 5.96,12.1 6.29,11.97 0.33,-0.14 -1.26,-4.68 -4.43,-12.79 -3.1,-8.14 -8.22,-19.67 -15.1,-33.64 -13.7,-27.96 -35.69,-65.29 -65.34,-102.6 -29.73,-37.23 -61.19,-67.01 -85.38,-86.62 -12.08,-9.83 -22.17,-17.39 -29.41,-22.23 -7.2,-4.91 -11.27,-7.48 -11.47,-7.19"
         style="fill:#17282f;fill-opacity:1;fill-rule:nonzero;stroke:none"
         id="path110" />
      <path
         d="m 3019.63,2820.06 c 0.16,0.08 0.91,-1.22 2.19,-3.77 1.22,-2.57 3.24,-6.28 5.25,-11.31 4.32,-9.94 9.68,-24.75 14.34,-43.61 9.46,-37.46 14.03,-92.7 -1,-150.51 -15.02,-57.83 -45.92,-103.86 -72.42,-131.97 -13.25,-14.2 -25.15,-24.53 -33.76,-31.1 -4.2,-3.42 -7.77,-5.68 -10.09,-7.33 -2.36,-1.6 -3.65,-2.37 -3.75,-2.23 -0.26,0.35 4.41,4.09 12.55,11.12 8.17,7.01 19.57,17.66 32.32,32.01 25.51,28.43 55.34,73.99 70.11,130.81 14.76,56.8 10.89,111.12 2.45,148.37 -4.15,18.74 -8.92,33.6 -12.64,43.7 -3.69,10.11 -5.94,15.65 -5.55,15.82"
         style="fill:#17282f;fill-opacity:1;fill-rule:nonzero;stroke:none"
         id="path112" />
      <path
         d="m 3196.69,2721.44 c -0.02,-0.91 -9.95,-0.72 -25.63,-3.02 -15.66,-2.25 -37.02,-7.8 -58.51,-18.78 -21.45,-11.07 -38.41,-25.2 -49.36,-36.61 -11.01,-11.4 -16.64,-19.58 -17.39,-19.07 -0.46,0.26 4.12,9.25 14.68,21.56 10.47,12.3 27.6,27.36 49.69,38.75 22.13,11.31 44.34,16.45 60.45,17.8 16.15,1.41 26.12,-0.11 26.07,-0.63"
         style="fill:#17282f;fill-opacity:1;fill-rule:nonzero;stroke:none"
         id="path114" />
      <path
         d="m 3519.37,1633.16 c -0.17,0.06 0.5,2.51 1.92,7.09 1.3,4.62 3.88,11.21 6.17,20.02 5.17,17.43 11.3,43.11 15.24,75.34 3.94,32.19 5.11,71.1 -0.21,113.68 -5.06,42.52 -16.92,88.72 -37.55,133.66 -10.41,22.43 -22.46,43.41 -35.5,62.74 -13.27,19.18 -27.56,36.6 -42.08,52.37 -29.58,31.03 -60.19,55.11 -87.92,71.95 -27.68,16.94 -51.7,27.93 -68.72,34.29 -8.36,3.61 -15.21,5.43 -19.66,7.21 -4.52,1.63 -6.87,2.57 -6.82,2.74 0.05,0.18 2.5,-0.42 7.13,-1.73 4.57,-1.46 11.54,-2.98 20.06,-6.32 17.32,-5.81 41.76,-16.36 69.93,-33.04 28.22,-16.59 59.39,-40.61 89.49,-71.81 14.77,-15.85 29.31,-33.4 42.8,-52.77 13.25,-19.52 25.48,-40.75 36.02,-63.45 20.88,-45.5 32.73,-92.28 37.58,-135.27 5.11,-43.06 3.55,-82.32 -0.9,-114.72 -4.44,-32.42 -11.17,-58.14 -16.95,-75.46 -2.6,-8.76 -5.5,-15.27 -7.12,-19.79 -1.75,-4.48 -2.74,-6.79 -2.91,-6.73"
         style="fill:#17282f;fill-opacity:1;fill-rule:nonzero;stroke:none"
         id="path116" />
      <path
         d="m 3518.76,2273.28 c 0.56,-0.13 -0.95,-9.84 -6.12,-24.82 -5.15,-14.95 -14.47,-35.04 -28.66,-54.73 -14.2,-19.69 -30.33,-34.88 -43.02,-44.35 -12.68,-9.53 -21.52,-13.85 -21.81,-13.35 -1.12,1.37 32.97,21.72 60.61,60.75 28.13,38.6 37.33,77.15 39,76.5"
         style="fill:#17282f;fill-opacity:1;fill-rule:nonzero;stroke:none"
         id="path118" />
      <path
         d="m 2467.98,3092.55 c 0.34,0.11 1.76,-3.58 4.03,-10.39 1.19,-3.39 2.51,-7.58 3.64,-12.55 1.17,-4.96 2.78,-10.56 3.72,-16.92 2.47,-12.62 4.06,-27.9 4.51,-44.91 0.17,-17.01 -0.97,-35.75 -4.23,-55.13 -3.47,-19.36 -8.72,-37.39 -14.61,-53.35 -6.17,-15.86 -12.82,-29.71 -19.4,-40.75 -3.03,-5.67 -6.43,-10.41 -9.21,-14.68 -2.74,-4.3 -5.39,-7.8 -7.66,-10.59 -4.43,-5.64 -7.01,-8.64 -7.3,-8.42 -0.81,0.6 8.93,13.12 20.95,35.48 6.09,11.13 12.29,24.93 18.12,40.62 5.55,15.8 10.57,33.55 13.98,52.58 3.2,19.05 4.46,37.45 4.57,54.19 -0.19,16.74 -1.38,31.82 -3.35,44.36 -3.78,25.1 -8.72,40.17 -7.76,40.46"
         style="fill:#17282f;fill-opacity:1;fill-rule:nonzero;stroke:none"
         id="path120" />
      <path
         d="m 2029.18,929.25 c -9.63,0 -19.17,1.379 -27.81,6.012 -6.09,3.258 -11.19,7.91 -15.6,13.398 -209.05,0.762 -423.92,28.66 -604.31,133.69 -3.36,1.96 -6.69,3.94 -10.03,5.96 -0.12,4.69 -0.18,9.41 -0.16,14.15 0.37,66.69 13.6,127.69 30.48,176.81 24.24,-20.47 51.4,-38.97 81.57,-55.54 66.4,-36.47 134.81,-58.43 205.2,-71.48 -0.05,-0.8 -0.1,-1.54 -0.15,-2.23 -0.12,-2.34 -0.14,-3.53 -0.05,-3.54 v 0 c 0.09,0 0.29,1.19 0.59,3.51 0.07,0.66 0.15,1.38 0.24,2.15 79.92,-14.76 162.36,-18.04 247.25,-18.04 6.22,0 12.46,0.02 18.7,0.05 0.76,11.73 1.84,23.42 3.42,35.04 0.91,6.73 2.17,13.89 6.4,18.71 4.52,5.15 11.17,6.28 17.75,6.28 1.68,0 3.35,-0.07 4.99,-0.17 32.22,-1.95 68.81,-2.42 104.58,-4.9 0.85,9.23 2.08,18.08 3.83,26.27 3.72,32.63 3.68,54.48 2.04,96.37 -0.53,13.5 -4.52,30.07 -2.24,43.38 2.27,13.32 18.61,25.22 32.08,26.16 0.52,0.04 1.03,0.05 1.54,0.05 11.84,0 21.96,-9.5 28.33,-19.67 21.51,-34.32 22.03,-86.05 58.87,-102.88 7.81,-3.56 16.28,-5.09 25.07,-5.09 28.59,0 60.58,16.21 83.98,31.41 42.11,27.33 55.21,46.13 96.64,73.91 18.74,-26.58 33.05,-54.35 43.26,-81.76 -9.14,-14.56 -19.12,-24.83 -34.92,-47.42 l 0.09,-0.09 1.53,1.59 -1.27,-1.86 c 31.71,-31.21 35.44,-62.33 11.69,-97.99 l 6.59,6.86 c -2.68,-4.48 -5.68,-8.76 -8.8,-12.95 21.22,-18.41 16.42,-79.43 -3.48,-98.87 -1.81,-1.77 -3.7,-3.49 -5.57,-5.22 -2.95,-3.85 -6.18,-7.47 -9.48,-11.03 l -0.35,-0.53 c -4.34,-8 -4.23,-17.609 -6.92,-26.301 -8.66,-28 -54.73,-45.429 -83.74,-49.617 -17.23,-2.492 -32.92,-3.59 -48.2,-3.59 -26.24,0 -51.27,3.238 -80.73,8.258 -25.35,4.32 -38.44,12.922 -47.41,20.57 -35.61,-15.449 -73.06,-25.371 -111.04,-29.011 -4.77,-0.457 -9.62,-0.809 -14.45,-0.809 m -663.03,162.29 c -177.21,109.71 -309.93,307.67 -293.12,514.89 0,0 -1.42,102.39 90.14,102.39 0.58,0 1.16,-0.01 1.74,-0.02 84.54,-1.17 83.73,-60.19 83.73,-60.19 0,-157.53 48.69,-279.28 149.56,-366.31 -17.79,-49.6 -31.76,-111.72 -32.14,-179.81 -0.01,-3.66 0.02,-7.31 0.09,-10.95 m -201.14,302.67 c -0.01,0 -0.02,0 -0.03,0 -0.34,-0.09 0.52,-4.21 2.4,-11.63 2,-7.37 5.51,-17.89 10.97,-30.46 11.09,-24.93 31.55,-57.85 63.05,-85.76 15.62,-13.96 32.23,-25.28 48.24,-33.83 16,-8.49 31.24,-14.86 44.82,-17.66 7.01,-1.53 13.47,-2.15 19.11,-2.15 5.25,0 9.8,0.53 13.43,1.38 7.57,1.69 11.31,3.89 11.2,4.11 -0.01,0.07 -0.08,0.1 -0.21,0.1 -0.66,0 -2.85,-0.7 -6.39,-1.4 -3.54,-0.7 -8.42,-1.4 -14.44,-1.4 -6.16,0 -13.52,0.73 -21.86,2.94 -13.02,3.16 -27.77,9.72 -43.37,18.29 -15.57,8.62 -31.75,19.82 -47.07,33.51 -30.86,27.35 -51.38,59.24 -63.17,83.43 -11.62,24.15 -15.66,40.53 -16.68,40.53 M 2468.4,1281.83 c -10.09,26.75 -24.04,53.81 -42.16,79.75 10.16,6.61 21.95,12.99 33.39,12.99 3.71,0 7.39,-0.67 10.96,-2.22 22.04,-9.6 19.29,-41.76 10.36,-64.08 -4.43,-11.07 -8.45,-19.37 -12.55,-26.44"
         style="fill:#cc4341;fill-opacity:1;fill-rule:nonzero;stroke:none"
         id="path122" />
      <path
         d="m 1688.32,1146.48 v 0 c -0.09,0.01 -0.07,1.2 0.05,3.54 0.05,0.69 0.1,1.43 0.15,2.23 0.21,-0.04 0.42,-0.08 0.63,-0.11 -0.09,-0.77 -0.17,-1.49 -0.24,-2.15 -0.3,-2.32 -0.5,-3.51 -0.59,-3.51 m 777.32,130.78 c -10.21,27.41 -24.52,55.18 -43.26,81.76 0.82,0.55 1.65,1.1 2.48,1.66 0.46,0.3 0.92,0.6 1.38,0.9 18.12,-25.94 32.07,-53 42.16,-79.75 -0.91,-1.58 -1.83,-3.1 -2.76,-4.57"
         style="fill:#0f191d;fill-opacity:1;fill-rule:nonzero;stroke:none"
         id="path124" />
      <path
         d="m 1371.43,1088.31 c -1.75,1.06 -3.53,2.15 -5.28,3.23 -0.07,3.64 -0.1,7.29 -0.09,10.95 0.38,68.09 14.35,130.21 32.14,179.81 1.17,-1.01 2.36,-2.02 3.55,-3.03 -16.88,-49.12 -30.11,-110.12 -30.48,-176.81 -0.02,-4.74 0.04,-9.46 0.16,-14.15"
         style="fill:#0f191d;fill-opacity:1;fill-rule:nonzero;stroke:none"
         id="path126" />
      <path
         d="m 1353.57,1212.72 c -5.64,0 -12.1,0.62 -19.11,2.15 -13.58,2.8 -28.82,9.17 -44.82,17.66 -16.01,8.55 -32.62,19.87 -48.24,33.83 -31.5,27.91 -51.96,60.83 -63.05,85.76 -5.46,12.57 -8.97,23.09 -10.97,30.46 -1.88,7.42 -2.74,11.54 -2.4,11.63 0.01,0 0.02,0 0.03,0 1.02,0 5.06,-16.38 16.68,-40.53 11.79,-24.19 32.31,-56.08 63.17,-83.43 15.32,-13.69 31.5,-24.89 47.07,-33.51 15.6,-8.57 30.35,-15.13 43.37,-18.29 8.34,-2.21 15.7,-2.94 21.86,-2.94 6.02,0 10.9,0.7 14.44,1.4 3.54,0.7 5.73,1.4 6.39,1.4 0.13,0 0.2,-0.03 0.21,-0.1 0.11,-0.22 -3.63,-2.42 -11.2,-4.11 -3.63,-0.85 -8.18,-1.38 -13.43,-1.38"
         style="fill:#0f191d;fill-opacity:1;fill-rule:nonzero;stroke:none"
         id="path128" />
      <path
         d="m 1248.64,1697.35 c 0,-196.78 75.95,-337.7 234.68,-424.89 158.74,-87.18 329.07,-91.46 510.16,-89.23 2.53,-61.96 5.06,-123.91 7.59,-185.859 -213.83,-0.551 -434.81,26.119 -619.61,133.719 -184.8,107.59 -325.72,310.93 -308.43,524.07 0,0 -1.44,103.68 91.88,102.38 84.54,-1.18 83.73,-60.19 83.73,-60.19"
         style="fill:#17282f;fill-opacity:1;fill-rule:nonzero;stroke:none"
         id="path130" />
      <path
         d="m 2470.59,1421.08 c -15.07,6.56 -32.01,-2.6 -45.73,-11.67 -43.41,-28.69 -56.18,-47.7 -99.11,-75.57 -30.61,-19.86 -75.87,-41.47 -109.06,-26.31 -36.84,16.83 -37.36,68.55 -58.87,102.87 -6.65,10.62 -17.38,20.5 -29.87,19.62 -13.47,-0.94 -29.81,-12.84 -32.08,-26.15 -2.28,-13.31 1.71,-29.89 2.24,-43.38 1.64,-41.9 1.68,-63.74 -2.04,-96.38 -3.72,-32.64 -10.74,-92.79 7.68,-119.99 9.26,-44.68 20.53,-74.6 40.17,-115.79 5.25,-11.01 -11.22,-2.53 -1.43,-9.81 10.54,-7.85 20.58,-24.641 59.59,-31.29 46.62,-7.941 82.13,-11.441 128.93,-4.671 29.01,4.203 75.08,21.621 83.74,49.621 2.69,8.69 2.58,18.31 6.92,26.3 3.63,6.71 9.94,11.45 15.4,16.78 20.28,19.82 24.95,82.95 2.29,100 27.61,37.9 24.89,70.54 -8.64,103.31 24.57,35.13 35.05,40.47 50.23,78.43 8.93,22.33 11.68,54.48 -10.36,64.08"
         style="fill:#ffffff;fill-opacity:1;fill-rule:nonzero;stroke:none"
         id="path132" />
      <path
         d="m 2184.08,1209.63 c -7.16,-6.2 -12.17,17.13 -21.01,19.06 -54.18,11.83 -121.05,10.76 -175.41,14.05 -8.03,0.49 -17.06,0.36 -22.74,-6.11 -4.23,-4.81 -5.49,-11.97 -6.4,-18.7 -7.44,-54.61 -5.72,-110.82 5.03,-164.71 5.48,-27.47 15.43,-57.251 37.82,-69.228 12.98,-6.941 27.97,-6.57 42.26,-5.203 79.83,7.66 157.47,42.771 220.17,99.561 l -79.72,131.28"
         style="fill:#ffffff;fill-opacity:1;fill-rule:nonzero;stroke:none"
         id="path134" />
      <path
         d="m 2142.75,1013.84 c -0.3,-0.21 -2.54,2.67 -6.37,8.08 -2.02,2.64 -4.01,6.16 -6.36,10.24 -2.47,4.02 -4.92,8.78 -7.43,14.15 -10.46,21.27 -20.86,52.55 -27.36,88.08 -6.29,35.58 -7.53,68.47 -5.62,92.07 0.37,5.9 0.9,11.23 1.66,15.88 0.65,4.65 1.2,8.66 2.03,11.87 1.45,6.46 2.42,9.98 2.77,9.9 0.91,-0.18 -2.04,-14.46 -2.78,-37.85 -0.96,-23.36 0.85,-55.78 7.07,-90.95 6.42,-35.12 16.11,-66.11 25.58,-87.47 9.24,-21.49 17.6,-33.46 16.81,-34"
         style="fill:#17282f;fill-opacity:1;fill-rule:nonzero;stroke:none"
         id="path136" />
      <path
         d="m 2400.38,1136.16 c -0.83,1.29 12.11,10.49 25.48,24.5 13.48,13.91 22.17,27.2 23.49,26.42 1.21,-0.6 -5.73,-15.57 -19.73,-30.03 -13.91,-14.55 -28.6,-22.07 -29.24,-20.89"
         style="fill:#17282f;fill-opacity:1;fill-rule:nonzero;stroke:none"
         id="path138" />
      <path
         d="m 2392.58,1033.9 c -0.83,1.29 12.11,10.49 25.49,24.49 13.48,13.91 22.16,27.21 23.48,26.43 1.21,-0.6 -5.73,-15.57 -19.73,-30.04 -13.91,-14.54 -28.6,-22.06 -29.24,-20.88"
         style="fill:#17282f;fill-opacity:1;fill-rule:nonzero;stroke:none"
         id="path140" />
      <path
         d="m 2383.37,1229.16 c -0.83,1.29 12.11,10.49 25.48,24.49 13.48,13.91 22.17,27.2 23.49,26.43 1.21,-0.6 -5.73,-15.57 -19.73,-30.04 -13.91,-14.54 -28.6,-22.06 -29.24,-20.88"
         style="fill:#17282f;fill-opacity:1;fill-rule:nonzero;stroke:none"
         id="path142" />
      <path
         d="m 1965.67,2212.78 c -3.07,-23.1 -83.91,-30.16 -173.82,-61.52 -90.57,-29.55 -159.14,-72.89 -175.58,-56.39 -7.48,8 1.1,30.97 26.68,58.29 25.3,27.22 68.63,57.32 122.73,75.64 54.12,18.19 106.81,20.51 143.46,14.19 36.9,-6.23 57.65,-19.31 56.53,-30.21"
         style="fill:#17282f;fill-opacity:1;fill-rule:nonzero;stroke:none"
         id="path144" />
      <path
         d="m 2830.05,2585.42 c -17.49,-17.94 -84.09,2.47 -164.64,5.06 -80.44,4.92 -149.03,-9.17 -164.33,10.32 -6.68,9.42 4.44,27.53 34.6,44.23 29.73,16.64 79.17,29.72 134.51,27.16 55.33,-2.62 102.93,-20.21 130.57,-39.55 28.07,-19.4 37.02,-38.45 29.29,-47.22"
         style="fill:#17282f;fill-opacity:1;fill-rule:nonzero;stroke:none"
         id="path146" />
      <path
         d="m 2848.9,2237.32 c 131.24,-51.28 193.64,-205.48 139.36,-344.41 -54.28,-138.92 -204.69,-209.98 -335.93,-158.7 -131.25,51.28 -193.64,205.48 -139.36,344.4 54.28,138.93 204.68,209.99 335.93,158.71"
         style="fill:#ffffff;fill-opacity:1;fill-rule:nonzero;stroke:none"
         id="path148" />
      <path
         d="m 2853.62,2249.39 c 131.24,-51.28 199.69,-189.99 152.87,-309.81 -46.81,-119.81 -191.16,-175.37 -322.4,-124.09 -131.26,51.28 -199.7,189.98 -152.89,309.79 46.82,119.82 191.16,175.39 322.42,124.11"
         style="fill:#17282f;fill-opacity:1;fill-rule:nonzero;stroke:none"
         id="path150" />
      <path
         d="m 2056.81,2059.52 c 106.72,-92.01 114.27,-258.19 16.87,-371.16 -97.39,-112.95 -262.87,-129.94 -369.59,-37.92 -106.72,92.01 -114.27,258.18 -16.87,371.14 97.4,112.96 262.87,129.95 369.59,37.94"
         style="fill:#ffffff;fill-opacity:1;fill-rule:nonzero;stroke:none"
         id="path152" />
      <path
         d="m 2065.27,2069.33 c 106.72,-92.01 125.13,-245.59 41.13,-343.02 -83.99,-97.41 -238.61,-101.8 -345.33,-9.79 -106.72,92.02 -125.13,245.59 -41.13,343.01 84,97.42 238.61,101.81 345.33,9.8"
         style="fill:#17282f;fill-opacity:1;fill-rule:nonzero;stroke:none"
         id="path154" />
      <path
         d="m 2354.65,1516.78 c -15.85,0 -31.06,8.94 -40.57,21.68 -9.84,13.17 -14.69,25.46 -14.92,41.89 -0.47,34.99 -2.94,62.9 25.75,82.91 23.61,16.46 66.7,24.59 100.62,24.59 7.32,0 14.22,-0.37 20.39,-1.13 -2.72,-41.12 -7.3,-82.78 -25.29,-119.86 -12.02,-24.76 -36.87,-48.99 -64.37,-50.05 -0.54,-0.02 -1.08,-0.03 -1.61,-0.03"
         style="fill:#cc4341;fill-opacity:1;fill-rule:nonzero;stroke:none"
         id="path156" />
      <path
         d="m 2420.63,1566.86 c 0.14,-0.08 -0.4,-1.37 -1.7,-3.69 -1.29,-2.33 -3.39,-5.65 -6.43,-9.7 -6.21,-8.03 -15.95,-18.92 -30.79,-29.75 -7.66,-5.03 -17.19,-9.28 -28.19,-10.28 -10.91,-1.21 -23.35,1.98 -33.08,9.8 -9.79,7.67 -17.05,19.29 -20.35,32.22 -3.42,12.95 -3.48,26.74 -2.89,40.45 0.58,13.74 2.22,27.54 7.35,39.95 5.06,12.47 13.88,22.57 23.55,29.88 19.59,14.76 41.52,20.07 59.29,22.42 17.97,2.26 32.58,1.99 42.61,1.8 10.04,-0.26 15.58,-0.67 15.58,-1.02 0,-0.37 -5.56,-0.64 -15.57,-1 -9.99,-0.43 -24.52,-0.74 -42.1,-3.42 -17.38,-2.75 -38.47,-8.36 -56.88,-22.58 -9.09,-7.06 -17.14,-16.45 -21.76,-28.01 -4.72,-11.56 -6.3,-24.73 -6.86,-38.25 -0.6,-13.55 -0.52,-26.82 2.61,-38.93 3.03,-12.07 9.58,-22.66 18.41,-29.75 8.77,-7.17 19.69,-10.16 29.74,-9.26 10.1,0.73 19.18,4.5 26.55,9.08 14.41,9.94 24.74,20.51 31.2,27.92 6.46,7.58 9.33,12.36 9.71,12.12"
         style="fill:#17282f;fill-opacity:1;fill-rule:nonzero;stroke:none"
         id="path158" />
      <path
         d="m 1976.18,155.762 c -84.37,14.59 -173.62,16.07 -256.91,-3.75 -43.3,-10.301 -87.02,-23.68 -122.55,-50.481 -35.53,-26.8005 -64.47,-54.5622 -61.06,-98.92944 l 650.88,-0.67968 c 0,79.09762 -125.99,139.25012 -210.36,153.84012"
         style="fill:#17282f;fill-opacity:1;fill-rule:nonzero;stroke:none"
         id="path160" />
      <path
         d="m 2694.97,158.59 c 84.36,14.59 173.62,16.07 256.91,-3.75 43.3,-10.301 87.02,-23.668 122.55,-50.469 35.53,-26.8007 62,-57.4022 58.58,-101.76944 L 2484.6,4.76172 C 2484.6,83.8516 2610.6,144 2694.97,158.59"
         style="fill:#17282f;fill-opacity:1;fill-rule:nonzero;stroke:none"
         id="path162" />
      <path
         d="m 1734.63,2958.71 c -0.22,-0.45 -7.76,3.18 -21.74,8.68 -13.96,5.56 -34.81,12.17 -61.25,16.66 -26.41,4.55 -58.64,6.06 -93.75,1.31 -35.06,-4.68 -72.87,-16.33 -108.38,-36.49 -35.27,-20.62 -64.31,-47.5 -85.94,-75.49 -21.73,-28 -36.58,-56.64 -45.88,-81.77 -9.38,-25.13 -14.11,-46.48 -16.3,-61.34 -2.26,-14.86 -2.89,-23.2 -3.39,-23.16 -0.18,0.01 -0.17,2.09 0.01,6.07 0.32,3.96 0.23,9.88 1.37,17.37 1.59,15.05 5.8,36.73 14.85,62.33 8.98,25.6 23.68,54.84 45.54,83.44 21.75,28.58 51.2,56.06 87.14,77.06 36.18,20.55 74.71,32.25 110.34,36.73 35.7,4.57 68.37,2.64 95.02,-2.43 26.69,-5.01 47.56,-12.24 61.38,-18.41 7.05,-2.77 12.13,-5.82 15.71,-7.53 3.54,-1.83 5.35,-2.87 5.27,-3.03"
         style="fill:#17282f;fill-opacity:1;fill-rule:nonzero;stroke:none"
         id="path164" />
      <path
         d="m 2301.44,2900.56 c -65.37,34.41 -139.23,51.72 -213.14,51.89 -0.12,56.47 -0.24,112.94 -0.36,169.41 0,0 54.21,-10.89 55.16,-163.15 0,0 3.6,0.34 9.91,0.34 24.91,0 92.2,-5.36 148.43,-58.49"
         style="fill:#cc4341;fill-opacity:1;fill-rule:nonzero;stroke:none"
         id="path166" />
      <path
         d="m 2353.62,2643.96 c 9.96,71.83 -15.38,147.71 -66.49,199.15 -44.11,44.38 -106.53,69.69 -169.01,69.69 -9.93,0 -19.86,-0.64 -29.73,-1.94 -0.03,13.86 -0.06,27.72 -0.09,41.59 73.91,-0.17 147.77,-17.48 213.14,-51.89 14.58,-13.78 28.42,-30.78 40.58,-51.73 70.92,-122.17 11.6,-204.87 11.6,-204.87"
         style="fill:#cc4341;fill-opacity:1;fill-rule:nonzero;stroke:none"
         id="path168" />
      <path
         d="m 2171.61,2340.04 c -0.18,0.03 -0.01,2.99 0.47,8.6 0.26,2.95 0.58,6.39 0.94,10.36 0.47,4.08 0.9,8.79 0.71,14.14 0.93,21.25 -1.43,52.4 -11.97,88.95 -2.15,9.29 -6.35,18.4 -9.76,28.18 -3.77,9.66 -8.73,19.29 -13.55,29.34 -5.82,9.54 -10.83,20.03 -18.01,29.55 -3.44,4.85 -6.73,9.92 -10.42,14.79 -3.89,4.72 -7.84,9.5 -11.83,14.34 -16.69,18.64 -35.58,37.39 -58.52,52.28 -22.65,15.15 -48.17,27.8 -75.89,36.14 -27.89,7.74 -56.23,10.67 -83.48,9.94 -27.36,-0.35 -53.34,-6.13 -77.4,-12.99 -5.97,-1.97 -11.85,-3.9 -17.67,-5.82 -5.72,-2.14 -11.21,-4.68 -16.7,-6.95 -11.16,-4.22 -20.99,-10.42 -31,-15.38 -9.45,-5.93 -18.78,-11.43 -27.12,-17.58 -8.11,-6.46 -16.52,-11.92 -23.29,-18.63 -28.42,-25.29 -47.03,-50.38 -57.59,-68.84 -3.01,-4.43 -5.16,-8.64 -6.94,-12.34 -1.81,-3.55 -3.38,-6.63 -4.72,-9.26 -2.6,-5 -4.04,-7.6 -4.2,-7.53 -0.17,0.07 0.95,2.81 3.24,7.97 1.22,2.7 2.65,5.87 4.3,9.52 1.65,3.8 3.67,8.12 6.57,12.65 10.1,18.92 28.43,44.63 56.9,70.58 6.77,6.88 15.21,12.5 23.37,19.13 8.39,6.31 17.78,11.98 27.32,18.07 10.09,5.11 20.02,11.47 31.31,15.83 5.56,2.34 11.12,4.95 16.91,7.16 5.89,1.98 11.86,3.98 17.9,6 24.39,7.1 50.78,13.08 78.63,13.51 27.74,0.81 56.64,-2.14 85.11,-10.04 28.28,-8.5 54.29,-21.43 77.31,-36.92 23.31,-15.22 42.45,-34.35 59.29,-53.37 4.02,-4.94 8,-9.81 11.93,-14.63 3.72,-4.96 7.02,-10.13 10.48,-15.07 7.21,-9.71 12.23,-20.39 18.03,-30.1 4.82,-10.23 9.74,-20.04 13.46,-29.86 3.37,-9.95 7.5,-19.21 9.57,-28.64 10.22,-37.14 12.01,-68.67 10.46,-90.06 0.02,-5.38 -0.56,-10.12 -1.2,-14.21 -0.55,-3.97 -1.03,-7.4 -1.44,-10.35 -0.82,-5.58 -1.33,-8.49 -1.51,-8.46"
         style="fill:#17282f;fill-opacity:1;fill-rule:nonzero;stroke:none"
         id="path170" />
      <path
         d="m 1236.03,2033.55 c -0.04,-0.18 -1.89,0.16 -5.38,0.96 -3.44,0.93 -8.7,1.79 -15.12,4.06 -13.03,3.91 -31.45,11.38 -52.35,24.01 -20.9,12.56 -43.85,31.06 -64.55,55.95 -20.71,24.79 -38.61,56.39 -48.82,92.43 -9.73,36.17 -10.57,72.5 -5.51,104.4 5.01,31.99 15.22,59.65 26.72,81.15 11.47,21.56 23.45,37.42 32.63,47.46 4.34,5.24 8.42,8.67 10.9,11.24 2.58,2.47 3.99,3.71 4.11,3.58 0.36,-0.35 -4.88,-5.74 -13.47,-16.14 -8.63,-10.35 -20.01,-26.36 -30.89,-47.82 -10.93,-21.41 -20.6,-48.74 -25.25,-80.19 -4.71,-31.36 -3.72,-66.92 5.78,-102.3 9.99,-35.23 27.37,-66.26 47.5,-90.76 20.13,-24.61 42.44,-43.1 62.8,-55.88 20.35,-12.84 38.33,-20.75 51.05,-25.21 12.71,-4.52 19.97,-6.47 19.85,-6.94"
         style="fill:#17282f;fill-opacity:1;fill-rule:nonzero;stroke:none"
         id="path172" />
      <path
         d="m 868.91,2401.35 c 0.063,0.59 11.086,0.17 28.547,-3.31 17.434,-3.45 41.199,-10.54 65.656,-22.51 24.438,-12.04 44.577,-26.51 57.967,-38.19 13.43,-11.69 20.5,-20.16 20.08,-20.56 -0.6,-0.61 -8.56,6.9 -22.41,17.71 -13.83,10.82 -33.922,24.54 -57.934,36.37 -24.035,11.76 -47.171,19.27 -64.187,23.59 -17.02,4.35 -27.828,6.06 -27.719,6.9"
         style="fill:#17282f;fill-opacity:1;fill-rule:nonzero;stroke:none"
         id="path174" />
      <path
         d="m 2328.45,2551.8 c -0.28,-0.86 -11.06,2.57 -28.89,5.7 -17.8,3.13 -42.89,5.25 -70.25,1.92 -27.36,-3.42 -51.15,-11.67 -67.52,-19.3 -16.42,-7.62 -25.86,-13.86 -26.37,-13.09 -0.2,0.3 1.99,2.09 6.15,5.11 4.11,3.08 10.46,6.99 18.6,11.28 16.22,8.62 40.46,17.67 68.5,21.17 28.03,3.41 53.71,0.64 71.6,-3.48 8.96,-2.06 16.11,-4.16 20.89,-6.03 4.81,-1.79 7.4,-2.94 7.29,-3.28"
         style="fill:#17282f;fill-opacity:1;fill-rule:nonzero;stroke:none"
         id="path176" />
      <path
         d="m 1626.23,2528.94 c 34.93,103.47 120.63,186.13 229.3,197.99 9.68,1.05 19.39,1.57 29.09,1.57 100.82,0 200.8,-55.79 251.8,-143.11 25.29,14.15 54.26,21.54 83.23,21.54 9.83,0 19.67,-0.86 29.36,-2.58 38.21,-6.82 73.85,-27.23 99.07,-56.74 -9.39,3.29 -18.96,5.99 -28.66,8.13 -4.71,1.7 -11.22,3.55 -19.15,5.37 -12.26,2.82 -28.19,5.01 -46.03,5.01 -8.17,0 -16.76,-0.46 -25.57,-1.53 -28.04,-3.5 -52.28,-12.55 -68.5,-21.17 -8.14,-4.29 -14.49,-8.2 -18.6,-11.28 -0.59,-0.43 -1.14,-0.84 -1.65,-1.21 -0.76,-0.41 -1.51,-0.82 -2.26,-1.24 -4.08,7.36 -8.17,14.95 -13.42,22.03 -3.46,4.94 -6.76,10.11 -10.48,15.07 -3.93,4.82 -7.91,9.69 -11.93,14.63 -16.84,19.02 -35.98,38.15 -59.29,53.37 -23.02,15.49 -49.03,28.42 -77.31,36.92 -25.45,7.07 -51.25,10.17 -76.26,10.17 -2.96,0 -5.91,-0.04 -8.85,-0.13 -27.85,-0.43 -54.24,-6.41 -78.63,-13.51 -6.04,-2.02 -12.01,-4.02 -17.9,-6 -5.79,-2.21 -11.35,-4.82 -16.91,-7.16 -11.29,-4.36 -21.22,-10.72 -31.31,-15.83 -9.54,-6.09 -18.93,-11.76 -27.32,-18.07 -8.16,-6.63 -16.6,-12.25 -23.37,-19.13 -28.47,-25.95 -46.8,-51.66 -56.9,-70.58 -0.55,-0.85 -1.06,-1.7 -1.55,-2.53 m 400.82,109.63 c -41.9,23.08 -89.86,35.83 -137.73,35.83 -2.53,0 -5.09,-0.04 -7.62,-0.11 -26.75,-0.76 -53.13,-4.13 -78.53,-10.56 23.98,6.83 49.87,12.58 77.13,12.92 2.65,0.07 5.31,0.11 7.98,0.11 24.78,0 50.32,-3.07 75.5,-10.05 22.68,-6.83 43.9,-16.54 63.27,-28.14"
         style="fill:#cc4341;fill-opacity:1;fill-rule:nonzero;stroke:none"
         id="path178" />
      <path
         d="m 1624.78,2524.53 c 0.48,1.48 0.96,2.94 1.45,4.41 0.49,0.83 1,1.68 1.55,2.53 10.1,18.92 28.43,44.63 56.9,70.58 6.77,6.88 15.21,12.5 23.37,19.13 8.39,6.31 17.78,11.98 27.32,18.07 10.09,5.11 20.02,11.47 31.31,15.83 5.56,2.34 11.12,4.95 16.91,7.16 5.89,1.98 11.86,3.98 17.9,6 24.39,7.1 50.78,13.08 78.63,13.51 2.94,0.09 5.89,0.13 8.85,0.13 25.01,0 50.81,-3.1 76.26,-10.17 28.28,-8.5 54.29,-21.43 77.31,-36.92 23.31,-15.22 42.45,-34.35 59.29,-53.37 4.02,-4.94 8,-9.81 11.93,-14.63 3.72,-4.96 7.02,-10.13 10.48,-15.07 5.25,-7.08 9.34,-14.67 13.42,-22.03 -0.86,-0.47 -1.72,-0.96 -2.58,-1.44 -23.29,47.13 -62,84.96 -108.03,110.32 -19.37,11.6 -40.59,21.31 -63.27,28.14 -25.18,6.98 -50.72,10.05 -75.5,10.05 -2.67,0 -5.33,-0.04 -7.98,-0.11 -27.26,-0.34 -53.15,-6.09 -77.13,-12.92 -72.34,-18.29 -136.64,-61.32 -178.39,-139.2"
         style="fill:#0f191d;fill-opacity:1;fill-rule:nonzero;stroke:none"
         id="path180" />
      <path
         d="m 2139.92,2530.93 c 0.51,0.37 1.06,0.78 1.65,1.21 4.11,3.08 10.46,6.99 18.6,11.28 16.22,8.62 40.46,17.67 68.5,21.17 8.81,1.07 17.4,1.53 25.57,1.53 17.84,0 33.77,-2.19 46.03,-5.01 7.93,-1.82 14.44,-3.67 19.15,-5.37 -18.32,4.02 -37.08,6.02 -55.84,6.02 -42.92,0 -85.89,-10.44 -123.66,-30.83"
         style="fill:#0f191d;fill-opacity:1;fill-rule:nonzero;stroke:none"
         id="path182" />
      <path
         d="m 1043.97,2313.21 c -1.1,1.24 -2.22,2.47 -3.35,3.69 0.2,-0.1 0.34,-0.16 0.44,-0.16 0.04,0 0.07,0.01 0.1,0.04 0.42,0.4 -6.65,8.87 -20.08,20.56 -13.39,11.68 -33.529,26.15 -57.967,38.19 -24.457,11.97 -48.222,19.06 -65.656,22.51 -12.781,2.55 -22.113,3.45 -26.223,3.53 17.426,4.69 35.442,7.17 53.379,7.17 26.16,0 52.16,-5.27 75.917,-16.6 31.16,51.18 88.22,85.64 148.02,89.41 -57.53,-27.71 -97.32,-88.31 -101.6,-151.8 -0.99,-4.69 -1.88,-9.49 -2.65,-14.39 -0.11,-0.71 -0.22,-1.43 -0.33,-2.15"
         style="fill:#cc4341;fill-opacity:1;fill-rule:nonzero;stroke:none"
         id="path184" />
      <path
         d="m 1046.79,2309.98 c -0.93,1.08 -1.87,2.16 -2.82,3.23 0.11,0.72 0.22,1.44 0.33,2.15 0.77,4.9 1.66,9.7 2.65,14.39 -0.44,-6.57 -0.5,-13.17 -0.16,-19.77"
         style="fill:#0f191d;fill-opacity:1;fill-rule:nonzero;stroke:none"
         id="path186" />
      <path
         d="m 1041.06,2316.74 c -0.1,0 -0.24,0.06 -0.44,0.16 -43.714,47.27 -106.569,78.68 -170.167,84.45 0.262,0.07 0.524,0.15 0.781,0.22 4.11,-0.08 13.442,-0.98 26.223,-3.53 17.434,-3.45 41.199,-10.54 65.656,-22.51 24.438,-12.04 44.577,-26.51 57.967,-38.19 13.43,-11.69 20.5,-20.16 20.08,-20.56 -0.03,-0.03 -0.06,-0.04 -0.1,-0.04"
         style="fill:#0f191d;fill-opacity:1;fill-rule:nonzero;stroke:none"
         id="path188" />
      <path
         d="m 3542.17,1704.46 c 2.17,11.78 3.78,23.82 4.88,36.03 3.9,31.33 5.04,68.65 0.2,109.37 -4.85,42.99 -16.7,89.77 -37.58,135.27 -10.54,22.7 -22.77,43.93 -36.02,63.45 -13.49,19.37 -28.03,36.92 -42.8,52.77 -30.1,31.2 -61.27,55.22 -89.49,71.81 -28.17,16.68 -52.61,27.23 -69.93,33.04 -5.55,2.18 -10.45,3.58 -14.45,4.7 l 0.61,-0.04 c 2.92,0.1 5.83,0.15 8.77,0.15 59.84,0 122.59,-20.9 176.51,-55.06 -14.03,-12.5 -24.34,-19.16 -23.72,-19.92 0.02,-0.03 0.05,-0.04 0.11,-0.04 1.11,0 9.68,4.35 21.7,13.39 1.77,1.32 3.6,2.75 5.48,4.28 44.48,-28.86 82.7,-66.77 107.95,-109.34 57.81,-97.45 45.51,-242.36 -12.22,-339.86 m -126.92,405.86 c -41.82,39.91 -89.76,70.06 -136.07,90.66 16.14,-6.61 36.9,-16.67 60.26,-30.97 23.97,-14.55 50.08,-34.51 75.81,-59.69"
         style="fill:#cc4341;fill-opacity:1;fill-rule:nonzero;stroke:none"
         id="path190" />
      <path
         d="m 3547.05,1740.49 c 7.69,85.7 -10.38,179.97 -47.27,255.53 -21.67,44.39 -51.15,82.46 -84.53,114.3 -25.73,25.18 -51.84,45.14 -75.81,59.69 -23.36,14.3 -44.12,24.36 -60.26,30.97 -8.19,3.65 -16.32,6.99 -24.36,10.03 l 2.16,-0.11 c 4,-1.12 8.9,-2.52 14.45,-4.7 17.32,-5.81 41.76,-16.36 69.93,-33.04 28.22,-16.59 59.39,-40.61 89.49,-71.81 14.77,-15.85 29.31,-33.4 42.8,-52.77 13.25,-19.52 25.48,-40.75 36.02,-63.45 20.88,-45.5 32.73,-92.28 37.58,-135.27 4.84,-40.72 3.7,-78.04 -0.2,-109.37"
         style="fill:#0f191d;fill-opacity:1;fill-rule:nonzero;stroke:none"
         id="path192" />
      <path
         d="m 3419.26,2135.99 c -0.06,0 -0.09,0.01 -0.11,0.04 -0.62,0.76 9.69,7.42 23.72,19.92 1.2,-0.75 2.39,-1.52 3.57,-2.29 -1.88,-1.53 -3.71,-2.96 -5.48,-4.28 -12.02,-9.04 -20.59,-13.39 -21.7,-13.39"
         style="fill:#0f191d;fill-opacity:1;fill-rule:nonzero;stroke:none"
         id="path194" />
      <path
         d="m 3586.84,588.91 c 1.09,8.141 1.99,16.309 2.17,24.52 0.51,24.351 2.55,44.711 -3.9,71.601 -4.52,18.801 -13.65,37.789 -20.41,45.938 14.28,31.773 23.63,65.281 27.35,99.312 1.39,12.821 1.91,26.27 -4.18,38 -10.49,20.239 -37.09,29.52 -61.68,34.758 -48.25,10.293 -98.68,12.5 -147.78,6.461 -6.06,-0.738 -12.5,-1.781 -16.87,-5.52 -5.87,-5.031 -6.09,-13.128 -5.75,-20.339 1.18,-24.95 4.81,-66.77 1.9,-107.75 -24.95,-9.2 -48,-23.942 -67.27,-43.391 l -0.66,-0.668 c -22.22,-22.242 -74,-57.492 -74,-57.492 -14.71,-9.93 -23.92,-20.231 -24.93,-32.309 -0.93,-11.211 4.63,-21.133 14.08,-27.23 30.55,-19.711 99.01,29.941 99.01,29.941 0,0 -11.88,-37.32 -30.07,-64.551 -30.71,-45.972 -6.62,-7.5 -53.51,-77.519 -4.84,-7.231 -19.94,-25.82 -13.88,-45.301 6.33,-20.41 20.9,-22.871 40.96,-15.152 33.96,13.062 78.45,60.293 107.96,84.172 -8.13,-10.012 -47.95,-67.411 -54.57,-77.911 -9.26,-14.679 -18.61,-26.781 -14.26,-39.089 4.35,-12.309 21.97,-16.539 34.99,-15.559 10.57,0.789 19.4,8.066 27.25,15.188 22.29,20.191 51.63,55.98 70.88,79.089 -9.02,-20.539 -30.46,-60.648 -36.31,-82.3 -2.15,-7.977 -8.06,-25.34 -4.41,-32.75 6.2,-12.567 24.26,-13.43 37.28,-8.227 16.85,6.719 39.89,33.539 49.81,48.727 9.91,15.203 16.61,32.23 23.23,49.121 0,0 -2.55,-12.282 -5.76,-19.371 -3.21,-7.09 -11.57,-27.84 -11.7,-35.618 -0.12,-7.789 -8.91,-36.929 3.49,-44.871 16.66,-10.672 30.85,6.969 35.2,12.43 28.98,36.398 45.68,86.152 57.4,120.371 10.39,30.328 14.7,61.609 18.94,93.289"
         style="fill:#ffffff;fill-opacity:1;fill-rule:nonzero;stroke:none"
         id="path196" />
      <path
         d="m 3586.84,588.91 c 0,0 -0.12,-2.25 -0.61,-6.601 -0.58,-4.528 -1.4,-10.938 -2.47,-19.289 -2.53,-16.84 -5.88,-42.098 -16.63,-72.891 -5.21,-15.367 -11.05,-32.488 -18.74,-50.75 -7.72,-18.207 -17.1,-37.77 -30.52,-56.77 -6.78,-9 -13.77,-20.289 -26.89,-24.109 -6.58,-1.691 -13.71,0.121 -19,4.961 -4.84,5.66 -5.08,12.988 -4.93,19.531 0.23,6.688 1.42,13.34 2.46,19.93 0.26,1.637 0.47,3.277 0.54,4.777 0.08,1.91 0.39,3.672 0.77,5.391 0.76,3.441 1.79,6.75 2.89,10.07 2.23,6.61 4.76,13.16 7.6,19.731 2.85,6.257 4.56,13.199 6.11,20.179 l 3.61,-1.078 c -7.69,-19.652 -15.8,-40.773 -30.14,-59.101 -7.02,-9.121 -14.77,-17.899 -23.57,-25.993 -4.42,-4.007 -9.11,-7.867 -14.45,-11.046 -5.35,-3.262 -11.55,-5.293 -17.87,-5.911 -6.29,-0.66 -13.03,-0.019 -19.06,3.118 -2.98,1.57 -5.69,3.89 -7.62,6.793 -2.12,2.707 -2.84,6.949 -2.7,10.089 0.18,6.68 1.85,12.868 3.51,19.028 1.72,6.051 3.37,12.32 5.72,18.402 9.21,24.16 21.75,47.359 32.68,71.68 l 3.92,-2.43 c -15.51,-18.691 -31.39,-37.961 -48.67,-56.82 -8.69,-9.391 -17.64,-18.742 -27.76,-27.301 -5.11,-4.199 -10.88,-8.238 -17.8,-10.141 -7.11,-1.82 -13.93,-1.23 -20.79,0.082 -6.72,1.5 -13.72,4.231 -18.7,10.051 -5.09,5.867 -5.79,14.528 -3.45,21.367 2.22,6.942 6.05,12.782 9.67,18.563 3.59,5.789 7.45,11.379 11.45,17.008 15.77,22.539 31.78,45.422 48,68.582 l 3.59,-3.614 c -26.92,-22.226 -51.94,-48.386 -82.04,-69.679 -7.54,-5.278 -15.51,-10.16 -24.23,-13.887 -8.57,-3.562 -18.21,-6.773 -28.47,-4.383 -5.08,1.18 -9.64,4.52 -12.64,8.633 -3.05,4.148 -4.91,8.707 -6.14,13.539 -2.49,9.91 0.06,20.219 4.32,28.828 32.13,54.84 77.22,99.633 93.68,158.071 l 3.96,-2.86 c -13.29,-9.219 -27,-17.379 -41.53,-23.961 -14.43,-6.449 -29.89,-12.019 -46.41,-10.758 -8.22,1.02 -16.29,5.079 -21.6,11.368 -5.5,6.23 -8.34,14.82 -7.54,23.062 0.73,8.438 5.32,15.789 10.7,21.41 5.38,5.719 11.77,10.258 17.93,14.399 24.36,17.109 48.4,34.211 69.19,53.55 20.12,20.75 44.63,36.829 70.72,46.34 l -1.52,-2.011 c 1.91,27.23 1.12,54 -0.27,80.043 -0.36,6.519 -0.72,13 -1.08,19.429 -0.21,6.399 -1.17,12.86 0.23,19.731 0.71,3.379 2.29,6.808 4.87,9.398 2.56,2.621 5.87,4.129 9.06,5.09 6.48,1.852 12.67,2.051 18.83,2.84 49.44,4.98 96.55,1.422 138.91,-7.59 20.93,-4.66 42.17,-11.031 56.55,-26.199 7.19,-7.461 10.98,-17.551 11.77,-27.211 0.91,-9.731 -0.29,-19.09 -1.43,-28.051 -4.83,-36.039 -15.28,-67.238 -26.99,-93.078 l -0.17,1.289 c 7.46,-9.789 11.84,-20.34 15.57,-30.281 3.65,-10 5.93,-19.719 7.3,-28.797 2.79,-18.223 1.94,-33.781 1.51,-46.16 -0.26,-12.41 -1.34,-21.821 -2.02,-28.121 -0.67,-6.301 -1.17,-9.481 -1.17,-9.481 0,0 0.06,3.238 0.51,9.539 0.47,6.301 1.34,15.66 1.39,28.102 0.22,12.39 0.86,27.859 -2.09,45.828 -1.46,8.973 -3.8,18.512 -7.47,28.34 -3.74,9.73 -8.28,20.25 -15.42,29.461 l -0.18,1.289 c 11.41,25.75 21.56,56.773 26.13,92.472 1.08,8.911 2.18,18.11 1.26,27.321 -0.83,9.187 -4.32,18.277 -11.02,25.207 -13.42,14.101 -34.12,20.429 -54.8,24.883 -42.04,8.757 -88.76,12.109 -137.71,7.039 -6.06,-0.782 -12.43,-1.102 -18.02,-2.743 -5.73,-1.519 -9.86,-5.507 -10.92,-11.308 -1.2,-5.68 -0.35,-12.141 -0.09,-18.559 0.37,-6.441 0.75,-12.922 1.13,-19.441 1.46,-26.11 2.33,-53.051 0.47,-80.61 -0.07,-0.941 -0.69,-1.71 -1.52,-2.019 -25.47,-9.391 -49.12,-24.91 -68.97,-45.441 -21.28,-19.848 -45.23,-36.899 -69.72,-54.161 -6.22,-4.199 -12.15,-8.449 -17.12,-13.75 -4.96,-5.199 -8.75,-11.519 -9.33,-18.429 -0.65,-6.95 1.68,-14.02 6.35,-19.321 4.68,-5.429 11.24,-8.707 18.37,-9.629 14.64,-1.148 29.71,4.02 43.72,10.372 14.11,6.39 27.73,14.519 40.62,23.468 l 0.07,0.059 c 1.16,0.801 2.76,0.523 3.57,-0.649 l 0.32,-2.269 c -4.82,-14.441 -10.53,-28.531 -17.34,-42.34 -6.65,-13.941 -15.55,-26.789 -24.23,-39.473 -4.27,-6.449 -9.2,-12.648 -13.63,-18.828 -4.39,-6.359 -8.79,-12.738 -13.21,-19.14 l -13.09,-19.438 c -4.37,-6.652 -9.14,-12.73 -12.4,-19.582 -3.96,-8 -6.05,-16.98 -3.95,-25.301 2.08,-8.359 6.95,-16.589 15.04,-18.367 7.99,-1.972 17.07,0.68 25.15,4.129 8.17,3.488 15.91,8.188 23.28,13.359 29.54,20.86 54.47,46.872 81.78,69.399 1.09,0.902 2.7,0.75 3.6,-0.34 0.74,-0.91 0.76,-2.168 0.12,-3.09 l -0.12,-0.168 c -16.13,-23 -32.05,-45.722 -47.75,-68.101 -3.95,-5.551 -7.85,-11.188 -11.44,-16.961 -3.6,-5.688 -7.24,-11.367 -9.14,-17.34 -1.96,-5.867 -1.27,-12.27 2.51,-16.707 3.77,-4.5 9.84,-7.07 15.92,-8.402 6.06,-1.231 12.81,-1.68 18.46,-0.18 5.83,1.582 11.11,5.16 15.99,9.172 9.77,8.238 18.7,17.508 27.33,26.797 17.19,18.691 33.06,37.882 48.63,56.543 0.81,1 2.27,1.148 3.27,0.339 0.83,-0.671 1.06,-1.832 0.65,-2.761 -11.13,-24.571 -23.66,-47.66 -32.77,-71.379 -2.28,-5.86 -3.89,-11.922 -5.65,-18.02 -1.65,-6 -3.24,-12.082 -3.39,-17.91 -0.52,-5.75 3.09,-10.312 7.99,-13.012 4.92,-2.589 10.9,-3.277 16.6,-2.679 11.73,0.82 21.36,8.062 29.95,15.789 8.57,7.832 16.25,16.461 23.16,25.383 14,17.73 22.05,38.359 29.82,58.019 0.37,0.981 1.45,1.469 2.43,1.109 l 1.18,-2.179 c -1.63,-7.172 -3.39,-14.25 -6.44,-20.899 -2.81,-6.422 -5.36,-12.922 -7.57,-19.39 -1.09,-3.231 -2.11,-6.473 -2.83,-9.692 -0.37,-1.601 -0.63,-3.199 -0.71,-4.679 -0.09,-1.879 -0.34,-3.59 -0.61,-5.262 -1.09,-6.68 -2.26,-13.129 -2.52,-19.52 -0.25,-6.25 0.29,-12.929 3.95,-17.14 4.07,-3.739 10.39,-5.617 15.82,-4.11 11.36,3.102 18.51,13.77 25.23,22.743 13.34,18.64 22.79,37.98 30.6,56.027 7.79,18.09 13.76,35.121 19.11,50.43 11,30.5 14.66,55.593 17.54,72.382 1.3,8.301 2.29,14.68 2.99,19.188 0.68,4.332 1.16,6.531 1.16,6.531"
         style="fill:#17282f;fill-opacity:1;fill-rule:nonzero;stroke:none"
         id="path198" />
      <path
         d="m 3565.81,730.121 c -0.63,-0.723 -10.16,7.828 -27.19,19.16 -17.02,11.211 -42.42,24.469 -73,30.379 -30.6,5.801 -59.13,3.379 -79.31,0.32 -20.24,-3.23 -32.57,-6.57 -32.81,-5.699 -0.1,0.348 2.89,1.489 8.4,3.258 5.49,1.859 13.62,3.93 23.77,6.063 20.25,4.027 49.44,7.14 80.93,1.168 31.49,-6.079 57.38,-20.29 74.1,-32.45 8.35,-6.179 14.84,-11.519 18.96,-15.609 4.2,-4 6.39,-6.32 6.15,-6.59"
         style="fill:#17282f;fill-opacity:1;fill-rule:nonzero;stroke:none"
         id="path200" />
    </g>
  </g>
</svg>
