<svg width="430.11354980468747px" height="121.39999999999999px" xmlns="http://www.w3.org/2000/svg" viewBox="34.94322509765627 14.300000000000004 430.11354980468747 121.39999999999999" style="background: rgb(0, 158, 247);" preserveAspectRatio="xMidYMid"><defs><filter id="editing-extrude-glow"><feFlood flood-color="#009ef7" result="flood-1"></feFlood><feMorphology operator="erode" radius="1" in="SourceAlpha" result="erode"></feMorphology><feComposite operator="in" in="flood-1" in2="erode" result="comp1"></feComposite><feConvolveMatrix order="3,3" divisor="1" in="comp1" result="convolve" kernelMatrix="0 0 0 1 1 1 0 0 0"></feConvolveMatrix><feOffset dx="-3" dy="0" in="convolve" result="extrude"></feOffset><feComposite operator="in" in="flood-1" in2="extrude" result="comp-extrude"></feComposite><feFlood flood-color="#ffffff" result="flood-2"></feFlood><feComposite operator="in" in="flood-2" in2="SourceAlpha" result="comp2"></feComposite><feMorphology operator="dilate" radius="1" in="comp2" result="dilate"></feMorphology><feOffset dx="-4.5" dy="0" in="dilate" result="offset"></feOffset><feGaussianBlur in="offset" stdDeviation="5.8" result="blur"></feGaussianBlur><feComponentTransfer in="blur" result="shadow"><feFuncA type="linear" slope="0.8" intercept="-0.2"></feFuncA></feComponentTransfer><feMerge><feMergeNode in="shadow"></feMergeNode><feMergeNode in="comp-extrude"></feMergeNode><feMergeNode in="SourceGraphic"></feMergeNode></feMerge></filter></defs><g filter="url(#editing-extrude-glow)"><g transform="translate(98.79620146751404, 104.09000015258789)"><path d="M7.23 0.83L8.64-3.84L8.64-3.84Q10.88-2.62 14.21-2.62L14.21-2.62L14.21-2.62Q17.54-2.62 20.32-4.64L20.32-4.64L20.32-4.64Q23.10-6.66 25.09-10.37L25.09-10.37L25.09-10.37Q29.18-18.24 29.18-30.91L29.18-30.91L29.18-30.91Q29.18-38.98 25.54-38.98L25.54-38.98L25.54-38.98Q23.62-38.98 21.76-36.86L21.76-36.86L21.76-36.86Q19.90-34.75 18.43-31.36L18.43-31.36L18.43-31.36Q15.23-23.62 15.23-14.53L15.23-14.53L15.23-14.53Q15.23-12.67 16.13-11.55L16.13-11.55L16.13-11.55Q17.02-10.43 18.62-10.43L18.62-10.43L18.62-10.43Q18.37-8.45 16.64-7.04L16.64-7.04L16.64-7.04Q14.91-5.63 12.74-5.63L12.74-5.63L12.74-5.63Q7.55-5.63 4.90-8.86L4.90-8.86L4.90-8.86Q2.24-12.10 2.24-17.95L2.24-17.95L2.24-17.95Q2.24-23.81 4.03-28.42L4.03-28.42L4.03-28.42Q5.82-33.02 8.96-36.38L8.96-36.38L8.96-36.38Q12.10-39.74 16.42-41.66L16.42-41.66L16.42-41.66Q20.74-43.58 25.86-43.58L25.86-43.58L25.86-43.58Q43.01-43.58 43.01-26.88L43.01-26.88L43.01-26.88Q43.01-14.85 37.25-7.49L37.25-7.49L37.25-7.49Q31.49-0.06 21.50 0.83L21.50 0.83L21.50 0.83Q27.39 2.11 33.34 2.11L33.34 2.11L33.34 2.11Q38.02 2.11 41.47 0.13L41.47 0.13L41.47 0.13Q42.43-0.45 42.82-1.09L42.82-1.09L42.82-1.09Q44.74 0.64 44.74 4.06L44.74 4.06L44.74 4.06Q44.74 7.49 41.70 9.47L41.70 9.47L41.70 9.47Q38.66 11.46 32.74 11.46L32.74 11.46L32.74 11.46Q26.82 11.46 19.97 8.70L19.97 8.70L19.97 8.70Q13.12 5.95 7.23 0.83L7.23 0.83ZM66.62-2.69L66.62-2.69L66.62-2.69Q63.55 1.28 55.94 1.28L55.94 1.28L55.94 1.28Q51.97 1.28 49.09-1.12L49.09-1.12L49.09-1.12Q46.21-3.52 46.21-6.98L46.21-6.98L46.21-6.98Q46.21-8.90 46.40-9.86L46.40-9.86L50.69-32.64L63.68-33.92L59.01-9.22L59.01-9.22Q58.75-7.81 58.75-6.98L58.75-6.98L58.75-6.98Q58.75-3.26 60.99-3.26L60.99-3.26L60.99-3.26Q63.49-3.26 65.28-6.66L65.28-6.66L65.28-6.66Q65.86-7.74 66.11-9.15L66.11-9.15L70.66-32.64L83.26-33.92L78.53-8.96L78.53-8.96Q78.34-8 78.34-6.98L78.34-6.98L78.34-6.98Q78.34-5.95 78.91-4.83L78.91-4.83L78.91-4.83Q79.49-3.71 81.34-3.46L81.34-3.46L81.34-3.46Q80.96-1.92 79.62-0.90L79.62-0.90L79.62-0.90Q76.80 1.28 73.76 1.28L73.76 1.28L73.76 1.28Q70.72 1.28 68.93 0.19L68.93 0.19L68.93 0.19Q67.14-0.90 66.62-2.69ZM102.08-3.52L102.08-3.52L102.08-3.52Q100.10 1.28 93.76 1.28L93.76 1.28L93.76 1.28Q90.50 1.28 88.45-0.96L88.45-0.96L88.45-0.96Q86.72-2.94 86.72-4.93L86.72-4.93L86.72-4.93Q86.72-10.11 89.09-20.22L89.09-20.22L91.46-32.64L104.45-33.92L100.54-13.70L100.54-13.70Q99.46-8.96 99.46-7.30L99.46-7.30L99.46-7.30Q99.46-3.65 102.08-3.52ZM92.61-41.54L92.61-41.54L92.61-41.54Q92.61-44.03 94.69-45.38L94.69-45.38L94.69-45.38Q96.77-46.72 99.78-46.72L99.78-46.72L99.78-46.72Q102.78-46.72 104.61-45.38L104.61-45.38L104.61-45.38Q106.43-44.03 106.43-41.54L106.43-41.54L106.43-41.54Q106.43-39.04 104.42-37.76L104.42-37.76L104.42-37.76Q102.40-36.48 99.39-36.48L99.39-36.48L99.39-36.48Q96.38-36.48 94.50-37.76L94.50-37.76L94.50-37.76Q92.61-39.04 92.61-41.54ZM119.84 0.64L119.84 0.64L119.84 0.64Q116.80 0 115.23-0.29L115.23-0.29L115.23-0.29Q113.66-0.58 111.84-0.58L111.84-0.58L111.84-0.58Q110.02-0.58 108.22 0.06L108.22 0.06L108.22 0.06Q107.26-0.51 106.66-1.66L106.66-1.66L106.66-1.66Q106.05-2.82 106.05-4.61L106.05-4.61L106.05-4.61Q106.05-8.38 109.89-11.26L109.89-11.26L126.14-22.98L126.14-22.98Q121.60-24.26 117.47-24.26L117.47-24.26L117.47-24.26Q113.34-24.26 111.87-21.44L111.87-21.44L111.87-21.44Q109.70-24 109.70-28.03L109.70-28.03L109.70-28.03Q109.70-30.72 111.65-32.48L111.65-32.48L111.65-32.48Q113.60-34.24 117.70-34.24L117.70-34.24L117.70-34.24Q120-34.24 122.08-33.95L122.08-33.95L122.08-33.95Q124.16-33.66 126.02-33.41L126.02-33.41L129.47-32.90L129.47-32.90Q131.14-32.64 132.83-32.64L132.83-32.64L132.83-32.64Q134.53-32.64 135.81-33.34L135.81-33.34L135.81-33.34Q137.47-31.81 137.47-29.70L137.47-29.70L137.47-29.70Q137.47-26.37 133.38-22.91L133.38-22.91L117.18-10.82L117.18-10.82Q122.18-9.34 124.74-9.34L124.74-9.34L124.74-9.34Q130.11-9.34 132.42-11.90L132.42-11.90L132.42-11.90Q134.21-9.86 134.21-6.30L134.21-6.30L134.21-6.30Q134.21-2.75 131.90-0.74L131.90-0.74L131.90-0.74Q129.60 1.28 125.44 1.28L125.44 1.28L125.44 1.28Q122.88 1.28 119.84 0.64ZM173.18-13.25L173.18-13.25L173.18-13.25Q174.85-12.03 174.85-9.44L174.85-9.44L174.85-9.44Q174.85-6.85 173.73-5.02L173.73-5.02L173.73-5.02Q172.61-3.20 170.43-1.79L170.43-1.79L170.43-1.79Q165.76 1.22 157.60 1.22L157.60 1.22L157.60 1.22Q149.44 1.22 144.99-3.04L144.99-3.04L144.99-3.04Q140.54-7.30 140.54-14.85L140.54-14.85L140.54-14.85Q140.54-25.54 146.11-33.66L146.11-33.66L146.11-33.66Q150.34-39.68 157.89-42.24L157.89-42.24L157.89-42.24Q161.79-43.52 165.63-43.52L165.63-43.52L165.63-43.52Q169.47-43.52 171.84-43.01L171.84-43.01L171.84-43.01Q174.21-42.50 176-41.47L176-41.47L176-41.47Q179.90-39.23 179.90-35.65L179.90-35.65L179.90-35.65Q179.90-32.38 176.83-29.95L176.83-29.95L176.83-29.95Q174.02-27.78 171.71-27.78L171.71-27.78L171.71-27.78Q169.41-27.78 168.45-28.10L168.45-28.10L168.45-28.10Q168.70-30.40 168.70-31.90L168.70-31.90L168.70-31.90Q168.70-33.41 168.64-34.50L168.64-34.50L168.64-34.50Q168.58-35.58 168.26-36.61L168.26-36.61L168.26-36.61Q167.62-38.98 165.66-38.98L165.66-38.98L165.66-38.98Q163.71-38.98 161.76-37.15L161.76-37.15L161.76-37.15Q159.81-35.33 158.14-32.26L158.14-32.26L158.14-32.26Q154.37-25.28 154.37-17.02L154.37-17.02L154.37-17.02Q154.37-13.06 156.61-10.78L156.61-10.78L156.61-10.78Q158.85-8.51 163.65-8.51L163.65-8.51L163.65-8.51Q167.23-8.51 170.62-10.88L170.62-10.88L170.62-10.88Q172.10-11.90 173.18-13.25ZM200.19-17.98L200.19-17.98L200.19-17.98Q202.50-22.08 202.50-26.24L202.50-26.24L202.50-26.24Q202.50-28.99 200.51-28.99L200.51-28.99L200.51-28.99Q198.98-28.99 197.38-26.37L197.38-26.37L197.38-26.37Q195.71-23.74 195.20-20.35L195.20-20.35L191.87 0L178.62 1.28L185.15-32.64L195.71-33.92L194.56-27.46L194.56-27.46Q197.70-33.92 204.74-33.92L204.74-33.92L204.74-33.92Q208.45-33.92 210.46-32L210.46-32L210.46-32Q212.48-30.08 212.48-26.14L212.48-26.14L212.48-26.14Q212.48-22.21 209.89-19.71L209.89-19.71L209.89-19.71Q207.30-17.22 202.88-17.22L202.88-17.22L202.88-17.22Q200.96-17.22 200.19-17.98ZM216.29-1.92L216.29-1.92L216.29-1.92Q214.78-3.58 214.11-6.21L214.11-6.21L214.11-6.21Q213.44-8.83 213.44-13.12L213.44-13.12L213.44-13.12Q213.44-17.41 214.91-21.31L214.91-21.31L214.91-21.31Q216.38-25.22 219.07-28.03L219.07-28.03L219.07-28.03Q224.58-33.92 233.66-33.92L233.66-33.92L233.66-33.92Q236.93-33.92 239.30-32.83L239.30-32.83L250.24-33.92L245.50-8.96L245.50-8.96Q245.31-8.19 245.31-6.78L245.31-6.78L245.31-6.78Q245.31-5.38 246.18-4.48L246.18-4.48L246.18-4.48Q247.04-3.58 248.32-3.46L248.32-3.46L248.32-3.46Q247.68-1.28 245.34 0L245.34 0L245.34 0Q243.01 1.28 240.38 1.28L240.38 1.28L240.38 1.28Q237.76 1.28 236 0.29L236 0.29L236 0.29Q234.24-0.70 233.73-2.37L233.73-2.37L233.73-2.37Q232.70-0.77 230.53 0.26L230.53 0.26L230.53 0.26Q228.35 1.28 225.44 1.28L225.44 1.28L225.44 1.28Q222.53 1.28 220.16 0.51L220.16 0.51L220.16 0.51Q217.79-0.26 216.29-1.92ZM229.79-27.90L229.79-27.90L229.79-27.90Q229.06-26.75 228.42-24.80L228.42-24.80L228.42-24.80Q227.78-22.85 226.72-17.63L226.72-17.63L226.72-17.63Q225.66-12.42 225.66-8.70L225.66-8.70L225.66-8.70Q225.66-4.99 226.24-3.90L226.24-3.90L226.24-3.90Q226.82-2.82 227.84-2.82L227.84-2.82L227.84-2.82Q229.89-2.82 231.39-4.77L231.39-4.77L231.39-4.77Q232.90-6.72 233.47-10.18L233.47-10.18L236.86-28.93L236.86-28.93Q235.52-30.08 233.95-30.08L233.95-30.08L233.95-30.08Q232.38-30.08 231.46-29.57L231.46-29.57L231.46-29.57Q230.53-29.06 229.79-27.90ZM278.66-37.12L278.66-37.12L278.66-37.12Q279.55-38.66 279.55-40.32L279.55-40.32L279.55-40.32Q279.55-43.26 277.76-43.26L277.76-43.26L277.76-43.26Q275.01-43.26 273.86-37.63L273.86-37.63L272.90-32.64L278.72-32.64L278.34-29.76L272.32-29.76L266.56 0L253.63 1.28L259.78-29.76L255.23-29.76L255.81-32.64L260.29-32.64L261.63-37.70L261.63-37.70Q262.78-42.37 267.71-44.54L267.71-44.54L267.71-44.54Q271.30-46.08 277.31-46.08L277.31-46.08L277.31-46.08Q283.33-46.08 286.02-44.54L286.02-44.54L286.02-44.54Q288.70-43.01 288.70-40.96L288.70-40.96L288.70-40.96Q288.70-38.91 287.10-37.63L287.10-37.63L287.10-37.63Q285.50-36.35 283.71-36.35L283.71-36.35L283.71-36.35Q280.19-36.35 278.66-37.12ZM279.17-6.40L279.17-6.40L279.17-6.40Q279.17-8.13 280.06-12.48L280.06-12.48L283.46-29.76L279.68-29.76L279.94-31.68L279.94-31.68Q287.62-33.98 295.04-39.62L295.04-39.62L298.11-39.62L296.58-32.64L301.57-32.64L300.99-29.76L296.06-29.76L292.80-12.48L292.80-12.48Q291.97-8.51 291.97-7.17L291.97-7.17L291.97-7.17Q291.97-4.10 294.66-3.46L294.66-3.46L294.66-3.46Q294.02-1.28 291.71 0L291.71 0L291.71 0Q289.41 1.28 286.14 1.28L286.14 1.28L286.14 1.28Q282.88 1.28 281.02-0.77L281.02-0.77L281.02-0.77Q279.17-2.82 279.17-6.40Z" fill="#ffffff"></path></g></g><style>text {
  font-size: 64px;
  font-family: Arial Black;
  dominant-baseline: central;
  text-anchor: middle;
}</style></svg>