<svg width="318" height="264" viewBox="0 0 318 264" fill="none" xmlns="http://www.w3.org/2000/svg">
<path d="M154.605 139.674C154.523 140.548 154.262 141.395 153.839 142.162C153.416 142.93 152.839 143.6 152.145 144.132C150.881 145.106 149.297 145.561 147.713 145.407C146.469 145.287 145.288 144.799 144.32 144.003C143.351 143.207 142.639 142.139 142.273 140.936C141.906 139.732 141.903 138.446 142.262 137.24C142.621 136.034 143.327 134.962 144.291 134.161C145.254 133.359 146.432 132.863 147.676 132.736C148.919 132.609 150.172 132.856 151.276 133.446C152.38 134.036 153.285 134.943 153.878 136.051C154.47 137.16 154.723 138.42 154.605 139.674Z" fill="#7C72E5"/>
<path d="M159.555 243.798L73.496 179.046" stroke="#C4D0FB" stroke-width="4"/>
<path fill-rule="evenodd" clip-rule="evenodd" d="M140.486 69.9247L232.384 125.567L140.486 69.9247Z" fill="#C4D0FB"/>
<path d="M140.486 69.9247L232.384 125.567" stroke="#C4D0FB" stroke-width="4"/>
<path d="M161.85 239.721L256.16 177.711" stroke="#C4D0FB" stroke-width="4"/>
<path d="M88.3873 92.6969L57.6123 150.706" stroke="#C4D0FB" stroke-width="4"/>
<path fill-rule="evenodd" clip-rule="evenodd" d="M303.83 69.9247L286.383 113.418L303.83 69.9247Z" fill="#C4D0FB"/>
<path d="M303.83 69.9247L286.383 113.418" stroke="#C4D0FB" stroke-width="4"/>
<path fill-rule="evenodd" clip-rule="evenodd" d="M235.976 25.0885L302.868 65.7426L235.976 25.0885Z" fill="#70D6F5"/>
<path d="M235.976 25.0885L302.868 65.7426" stroke="#C4D0FB" stroke-width="4"/>
<path d="M24.1538 23.0074L88.1362 45.0208" stroke="#C4D0FB" stroke-width="4"/>
<path d="M310.818 150.913C310.164 157.745 308.034 164.351 304.576 170.266C301.12 176.18 296.421 181.262 290.809 185.154C285.197 189.045 278.807 191.653 272.088 192.794C265.371 193.934 258.487 193.58 251.918 191.757C245.351 189.933 239.258 186.684 234.067 182.237C228.879 177.79 224.716 172.253 221.874 166.015C219.035 159.776 217.582 152.987 217.621 146.123C217.66 139.259 219.188 132.487 222.101 126.281C230.285 108.89 248.635 97.6655 268.752 99.5998C294.438 102.068 313.274 125.043 310.818 150.913Z" fill="#C4D0FB"/>
<path d="M38.8533 24.5489C38.5947 27.2776 37.4693 29.8495 35.6441 31.8822C33.8189 33.9151 31.3913 35.3003 28.7221 35.8319C26.053 36.3636 23.285 36.0135 20.8292 34.8334C18.3735 33.6536 16.361 31.7068 15.0912 29.2825C14.8175 28.7623 14.5806 28.2233 14.3823 27.6696C13.7382 25.874 13.5031 23.9553 13.6945 22.0557C13.8859 20.1562 14.4987 18.3243 15.4878 16.6955C16.4769 15.0669 17.8168 13.6831 19.4085 12.6466C20.9999 11.6101 22.8025 10.9475 24.6827 10.7077C26.5629 10.468 28.4726 10.6572 30.2702 11.2615C32.0681 11.8657 33.7078 12.8695 35.0685 14.1985C36.4292 15.5275 37.4758 17.1478 38.131 18.9395C38.7861 20.7311 39.0329 22.6482 38.8533 24.5489Z" fill="#C4D0FB"/>
<path d="M172.711 242.952C172.482 245.386 171.575 247.708 170.098 249.646C168.618 251.586 166.625 253.065 164.35 253.914C162.072 254.764 159.605 254.949 157.229 254.448C154.852 253.948 152.663 252.783 150.916 251.086C149.492 249.705 148.401 248.013 147.727 246.14C147.07 244.307 146.829 242.348 147.026 240.408C147.221 238.469 147.846 236.599 148.855 234.936C149.864 233.273 151.234 231.86 152.858 230.802C154.482 229.744 156.322 229.067 158.242 228.822C160.162 228.577 162.112 228.77 163.948 229.387C165.783 230.004 167.456 231.028 168.845 232.385C170.234 233.742 171.304 235.396 171.973 237.225C172.643 239.055 172.894 241.011 172.711 242.952Z" fill="#C4D0FB"/>
<path d="M317.397 67.3654C317.139 70.0942 316.013 72.6664 314.189 74.6995C312.364 76.7324 309.936 78.1179 307.268 78.6498C304.597 79.1819 301.829 78.8317 299.373 77.6519C296.918 76.4721 294.905 74.5253 293.635 72.101C293.361 71.5804 293.125 71.0414 292.924 70.4881C292.278 68.692 292.044 66.7728 292.235 64.8726C292.426 62.9725 293.038 61.1397 294.027 59.5104C295.015 57.881 296.356 56.4964 297.947 55.4594C299.541 54.4222 301.342 53.7592 303.223 53.5194C305.105 53.2793 307.016 53.4686 308.813 54.0731C310.611 54.6774 312.252 55.6816 313.612 57.0112C314.973 58.3408 316.021 59.9617 316.676 61.7539C317.33 63.5464 317.576 65.464 317.397 67.3654Z" fill="#C4D0FB"/>
<path d="M244.967 23.6225C244.803 25.3707 244.282 27.0657 243.433 28.6003C242.586 30.135 241.432 31.4757 240.044 32.5381C239.589 32.8884 239.113 33.2067 238.614 33.4904C236.245 34.8466 233.504 35.3943 230.801 35.0517C228.097 34.7093 225.574 33.4947 223.613 31.5898C222.219 30.2366 221.15 28.5792 220.49 26.7451C219.846 24.9495 219.612 23.031 219.803 21.1314C219.994 19.2319 220.606 17.4 221.595 15.7713C222.583 14.1426 223.924 12.7587 225.515 11.7222C227.106 10.6856 228.91 10.0229 230.789 9.78298C232.669 9.54306 234.579 9.73213 236.377 10.3362C238.175 10.9403 239.814 11.9439 241.176 13.2727C242.537 14.6016 243.583 16.2217 244.238 18.0132C244.894 19.8047 245.14 21.7217 244.961 23.6225H244.967Z" fill="#C4D0FB"/>
<path d="M218.95 122.401L220.153 120.197C220.659 119.096 221.108 117.971 221.5 116.824C222.107 115.025 221.894 112.459 224.55 110.037C227.207 107.615 223.278 108.283 221.951 109.4C220.844 110.331 219.944 112.971 218.844 113.566C218.592 113.208 218.393 112.815 218.253 112.4L215.847 101.04C215.811 100.858 215.713 100.695 215.569 100.58C215.423 100.466 215.242 100.408 215.059 100.417L214.618 100.431C214.512 100.437 214.407 100.465 214.311 100.514C214.216 100.563 214.131 100.631 214.065 100.714C213.996 100.798 213.946 100.895 213.919 100.999C213.889 101.103 213.883 101.211 213.899 101.318C214.269 103.748 215.555 110.979 215.425 110.983L215.159 111.11L211.469 99.6038C211.418 99.4221 211.302 99.2659 211.144 99.1647C210.985 99.0638 210.796 99.0251 210.611 99.0562L210.02 99.1554C209.917 99.1717 209.819 99.2088 209.732 99.2647C209.644 99.3205 209.569 99.3937 209.51 99.48C209.453 99.5661 209.411 99.6635 209.392 99.7661C209.372 99.8684 209.374 99.974 209.396 100.076C209.963 102.722 212.615 111.529 212.481 111.537L212.156 111.648L208.153 102.125C208.098 101.936 207.972 101.775 207.801 101.676C207.631 101.577 207.43 101.547 207.239 101.594L206.769 101.711C206.67 101.735 206.578 101.778 206.497 101.838C206.416 101.899 206.347 101.974 206.294 102.061C206.243 102.148 206.208 102.245 206.192 102.345C206.176 102.446 206.182 102.548 206.206 102.647L209.807 112.015L209.476 112.225L205.703 105.458C205.631 105.284 205.497 105.143 205.327 105.061C205.16 104.979 204.967 104.962 204.786 105.014L204.561 105.081C204.368 105.138 204.207 105.268 204.108 105.444C204.01 105.619 203.982 105.827 204.034 106.022C204.396 107.41 206.2 110.325 207.249 113.362C208.07 115.715 208.127 117.6 209.482 120.449C210.053 121.657 211.14 123.091 211.733 123.891" fill="#FFCCD7"/>
<path d="M287.368 187.379C278.611 192.382 268.483 194.4 258.494 193.134C248.506 191.868 239.19 187.385 231.935 180.352L232.498 165.804L214.421 162.797C211.753 162.058 209.434 160.386 207.88 158.08C206.326 155.774 205.639 152.986 205.942 150.215L207.421 121.659L221.703 122.651L222.097 126.285L224.305 145.466C224.305 145.466 239.247 147.348 259.638 152.608C279.487 157.728 285.333 175.486 287.368 187.379Z" fill="#9087E5"/>
<path d="M232.301 165.619L232.469 160.662" stroke="#C4D0FB" stroke-linecap="square"/>
<path d="M271.815 134.801C277.289 127.77 276.509 117.946 270.072 112.86C263.637 107.773 253.98 109.35 248.506 116.381C243.032 123.412 243.811 133.236 250.249 138.322C256.686 143.409 266.341 141.832 271.815 134.801Z" fill="#001833"/>
<path d="M250.234 158.293C249.159 157.509 248.368 156.394 247.98 155.116C247.59 153.838 247.625 152.467 248.078 151.211L255.187 131.547C255.429 130.749 255.831 130.009 256.366 129.373C256.9 128.736 257.56 128.216 258.3 127.844C259.043 127.472 259.85 127.255 260.677 127.208C261.504 127.161 262.331 127.283 263.109 127.568C263.889 127.853 264.6 128.295 265.204 128.866C265.807 129.438 266.289 130.127 266.62 130.892C266.951 131.656 267.124 132.481 267.128 133.315C267.132 134.15 266.969 134.976 266.646 135.744L259.535 155.411C259.21 156.302 258.686 157.106 258.003 157.76C257.32 158.413 256.494 158.898 255.595 159.176C254.693 159.455 253.74 159.52 252.81 159.366C251.881 159.211 250.998 158.842 250.234 158.287V158.293Z" fill="#FFCCD7"/>
<path d="M251.442 147.328L250.26 146.886C248.886 146.372 247.641 145.56 246.615 144.506C245.587 143.452 244.805 142.184 244.319 140.79C243.835 139.397 243.661 137.913 243.811 136.444C243.961 134.975 244.429 133.558 245.183 132.292L248.925 126.023C250.132 123.999 252.009 122.467 254.226 121.698C256.441 120.929 258.855 120.971 261.045 121.817C263.515 122.772 265.505 124.676 266.582 127.111C267.658 129.545 267.731 132.31 266.783 134.798L264.223 141.51C263.282 143.98 261.413 145.976 259.019 147.066C256.626 148.155 253.903 148.25 251.442 147.328Z" fill="#FFCCD7"/>
<path d="M252.385 129.58L247.263 133.77L249.274 135.291" stroke="#0C092A" stroke-linecap="square"/>
<path d="M253.687 132.54C254.283 132.54 254.768 132.053 254.768 131.451C254.768 130.85 254.283 130.362 253.687 130.362C253.09 130.362 252.605 130.85 252.605 131.451C252.605 132.053 253.09 132.54 253.687 132.54Z" fill="#0C092A"/>
<path d="M249.191 130.249C249.788 130.249 250.272 129.761 250.272 129.16C250.272 128.558 249.788 128.071 249.191 128.071C248.594 128.071 248.11 128.558 248.11 129.16C248.11 129.761 248.594 130.249 249.191 130.249Z" fill="#0C092A"/>
<path d="M281.964 164.027C281.964 164.027 276.978 176.603 267.266 171.016C251.187 161.765 254.49 149.6 259.023 144.035C260.829 141.819 263.355 140.837 265.992 140.032C258.326 133.221 262.095 127.797 262.095 127.797C262.095 127.797 241.592 126.47 248.222 116.671C254.852 106.873 266.695 108.156 272.972 112.412C287.564 122.308 282.598 132.394 285.928 136.107C304.806 157.182 281.964 164.027 281.964 164.027Z" fill="#001833"/>
<path d="M268.146 140.894C270.267 139.596 270.94 136.812 269.651 134.677C268.363 132.541 265.6 131.863 263.479 133.161L259.99 135.299C257.871 136.597 257.197 139.381 258.485 141.516C259.775 143.652 262.538 144.33 264.657 143.032L268.146 140.894Z" fill="#FFCCD7"/>
<path fill-rule="evenodd" clip-rule="evenodd" d="M267.193 136.377L262.243 139.406L267.193 136.377Z" fill="#0C092A"/>
<path d="M267.193 136.377L262.243 139.406" stroke="#0C092A" stroke-linecap="square"/>
<path d="M252.257 138.361C252.308 139.054 252.085 139.74 251.636 140.267C251.185 140.794 250.547 141.12 249.858 141.173C249.171 141.225 248.49 141.001 247.968 140.548C247.444 140.095 247.119 139.451 247.068 138.758C246.958 137.314 248.409 137.328 249.841 137.217C251.272 137.105 252.146 136.917 252.257 138.361Z" fill="#0C092A"/>
<path d="M161.535 54.7603C160.842 62.0224 158.58 69.0438 154.907 75.332C151.235 81.6199 146.241 87.0221 140.276 91.1594C134.312 95.2969 127.521 98.0693 120.38 99.2824C113.239 100.495 105.922 100.119 98.9403 98.1808C91.9589 96.2423 85.4833 92.7883 79.9673 88.0611C74.4515 83.3337 70.0292 77.4478 67.0108 70.816C63.9922 64.1845 62.4505 56.9676 62.4941 49.6719C62.5376 42.3762 64.165 35.1786 67.2623 28.5839C75.9593 10.0986 95.4584 -1.82585 116.839 0.229721C144.129 2.85241 164.141 27.2684 161.535 54.7603Z" fill="#9087E5"/>
<path d="M143.951 88.383L142.227 89.7724C140.441 91.1446 138.566 92.3942 136.614 93.5125C130.833 96.8136 124.453 98.912 117.852 99.6834C111.251 100.455 104.563 99.883 98.1854 98.0024C91.8075 96.1219 85.8694 92.9708 80.7226 88.7355C75.576 84.5004 71.3255 79.2675 68.2231 73.3468C76.104 67.5111 89.298 60.539 106.175 61.9621C134.405 64.355 143.951 88.383 143.951 88.383Z" fill="#C4D0FB"/>
<path d="M110.316 73.8169C109.998 73.8178 109.681 73.7988 109.366 73.76C107.272 73.5087 105.363 72.4299 104.059 70.7606C102.754 69.0914 102.161 66.9686 102.41 64.8589L106.177 32.9375C106.427 30.8275 107.498 28.9039 109.156 27.5899C109.976 26.9392 110.916 26.4579 111.921 26.1731C112.927 25.8885 113.978 25.806 115.015 25.9306C116.052 26.0552 117.055 26.3843 117.965 26.8994C118.876 27.4142 119.677 28.1049 120.323 28.9316C120.969 29.7584 121.447 30.7055 121.729 31.7183C122.012 32.7311 122.094 33.7903 121.97 34.8349L118.203 66.7563C117.972 68.7012 117.043 70.4932 115.589 71.7943C114.136 73.0953 112.26 73.8148 110.316 73.8169Z" fill="#FFCCD7"/>
<path d="M116.973 57.5094L118.659 57.6992C120.621 57.922 122.607 57.7066 124.476 57.0682C126.345 56.4298 128.052 55.3843 129.474 54.0057C130.897 52.6273 132.001 50.95 132.706 49.0928C133.412 47.2358 133.703 45.245 133.559 43.2617L132.843 33.4372C132.612 30.2642 131.278 27.2747 129.077 24.9937C126.875 22.7128 123.946 21.2861 120.804 20.9646C117.26 20.6024 113.718 21.6734 110.958 23.9421C108.197 26.2108 106.444 29.4913 106.085 33.0619L105.114 42.6946C104.756 46.2397 105.801 49.7835 108.021 52.5571C110.242 55.3308 113.458 57.1101 116.973 57.5094Z" fill="#FFCCD7"/>
<path d="M109.16 47.067L109.162 47.0657C111.485 45.626 112.209 42.5614 110.78 40.2208L109.312 37.8165C107.883 35.4761 104.841 34.746 102.518 36.1857L102.516 36.1868C100.193 37.6267 99.4683 40.6913 100.898 43.0317L102.366 45.4362C103.795 47.7766 106.837 48.5067 109.16 47.067Z" fill="#FFCCD7"/>
<path d="M103.074 40.074L107.033 44.2899" stroke="#001833" stroke-linecap="square"/>
<path d="M126.616 34.6852L126.894 42.5807L124.106 42.6946" stroke="#001833" stroke-linecap="square"/>
<path d="M118.312 45.1465C118.081 45.5756 117.937 46.0463 117.887 46.5317C117.837 47.017 117.883 47.5074 118.021 47.975C118.159 48.4426 118.388 48.8782 118.693 49.2568C118.998 49.6357 119.375 49.95 119.801 50.1821C120.227 50.4143 120.694 50.5597 121.176 50.6099C121.657 50.6601 122.144 50.6143 122.608 50.475C123.072 50.3358 123.505 50.1056 123.881 49.798C124.257 49.4904 124.569 49.1113 124.799 48.6821C125.768 46.8753 123.882 46.051 122.079 45.0748C120.275 44.0987 119.281 43.3418 118.312 45.1465Z" fill="#001833"/>
<path d="M110.197 43.7192L113.964 29.4652L114.857 26.0919C115.697 26.9985 116.68 27.7587 117.766 28.3415C121.708 30.4793 133.594 29.6275 135.241 21.2302C136.585 14.3826 129.367 18.3187 125.672 17.8907C119.865 17.2161 115.836 13.7733 107.884 18.1016C98.3734 23.2858 102.879 35.9945 102.879 35.9945C102.879 35.9945 107.064 34.3437 110.197 43.7192Z" fill="#001833"/>
<path opacity="0.4" d="M119.08 57.7413L114.043 57.2796L118.643 61.8011L119.08 57.7413Z" fill="black"/>
<path d="M121.248 38.9498C122.012 38.9498 122.631 38.3261 122.631 37.5565C122.631 36.7869 122.012 36.1631 121.248 36.1631C120.484 36.1631 119.865 36.7869 119.865 37.5565C119.865 38.3261 120.484 38.9498 121.248 38.9498Z" fill="#001833"/>
<path d="M129.499 38.9498C130.263 38.9498 130.883 38.3261 130.883 37.5565C130.883 36.7869 130.263 36.1631 129.499 36.1631C128.735 36.1631 128.116 36.7869 128.116 37.5565C128.116 38.3261 128.735 38.9498 129.499 38.9498Z" fill="#001833"/>
<path d="M99.0791 201.466C97.9028 214.03 92.0432 225.678 82.6812 234.063C81.7407 234.906 80.7706 235.711 79.7703 236.479C77.9849 237.851 76.1099 239.101 74.1578 240.219C65.4052 245.237 55.3389 247.44 45.3087 246.531L44.955 246.499C37.3007 245.764 29.9206 243.247 23.3968 239.147C16.873 235.048 11.384 229.476 7.36277 222.874C6.80466 221.955 6.27251 221.017 5.76609 220.059C2.1703 213.183 0.211585 205.559 0.0448009 197.789C-0.121773 190.019 1.50798 182.316 4.80556 175.29C13.5026 156.809 33.0039 144.88 54.3824 146.935C81.6788 149.558 101.684 173.974 99.0791 201.466Z" fill="#C4D0FB"/>
<path d="M90.5182 225.14C88.2663 228.417 85.6356 231.412 82.6812 234.063C81.7408 234.906 80.7706 235.711 79.7703 236.479C77.9849 237.851 76.1099 239.101 74.1579 240.219C71.2474 241.887 68.1765 243.253 64.9921 244.296L45.3087 246.531L44.955 246.499C37.3008 245.764 29.9206 243.247 23.3968 239.147C16.873 235.047 11.384 229.477 7.36279 222.874C14.8021 209.13 28.0925 194.977 51.6892 191.56C74.1851 188.302 86.5484 214.709 90.5182 225.14Z" fill="#9087E5"/>
<path d="M54.6984 203.383L54.4473 203.4C52.0516 203.51 49.7106 202.658 47.9389 201.03C46.1671 199.401 45.1097 197.131 44.999 194.718L43.5341 162.705C43.4791 161.51 43.6582 160.316 44.0615 159.191C44.4647 158.066 45.0839 157.031 45.8838 156.147C47.4993 154.361 49.7528 153.295 52.1485 153.183C54.5442 153.072 56.8858 153.923 58.6583 155.551C60.4308 157.178 61.4888 159.449 61.5999 161.862L63.0648 193.872C63.1746 196.243 62.3618 198.564 60.7993 200.34C59.2367 202.116 57.0478 203.208 54.6984 203.383Z" fill="#FFCCD7"/>
<path d="M60.0495 186.642L61.6881 186.221C63.5917 185.721 65.3629 184.806 66.8757 183.539C68.3885 182.272 69.6058 180.685 70.4407 178.89C71.2759 177.096 71.7083 175.138 71.7072 173.156C71.7064 171.174 71.2719 169.217 70.4353 167.423L66.2856 158.537C64.9446 155.668 62.644 153.367 59.7869 152.037C56.93 150.707 53.6994 150.433 50.6619 151.263C47.2348 152.201 44.3177 154.471 42.5517 157.575C40.7859 160.679 40.3157 164.362 41.245 167.815L43.7562 177.13C44.6826 180.557 46.913 183.477 49.9632 185.258C53.0134 187.039 56.6377 187.536 60.0495 186.642Z" fill="#FFCCD7"/>
<path d="M42.177 180.65C44.3373 182.314 47.4277 181.899 49.0796 179.723C50.7318 177.547 50.3199 174.433 48.1599 172.769L45.9425 171.06C43.7825 169.396 40.6921 169.811 39.04 171.987C37.3878 174.163 37.7996 177.276 39.9597 178.941L42.177 180.65Z" fill="#FFCCD7"/>
<path d="M72.9335 176.671C74.21 182.015 73.3521 189.854 66.9276 191.492C60.5032 193.13 52.5282 187.954 51.1889 182.62C49.8496 177.286 51.3165 174.307 57.7451 172.667C64.1737 171.027 71.2657 169.699 72.9335 176.671Z" fill="#001833"/>
<path fill-rule="evenodd" clip-rule="evenodd" d="M40.9331 175.416L45.154 177.925L40.9331 175.416Z" fill="#001833"/>
<path d="M40.9331 175.416L45.154 177.925" stroke="#001833" stroke-linecap="square"/>
<path d="M56.9855 177.495C56.88 178.459 57.1542 179.426 57.7489 180.188C58.3434 180.951 59.2115 181.448 60.1661 181.573C61.1208 181.698 62.0859 181.441 62.8545 180.857C63.623 180.273 64.1334 179.409 64.2763 178.45C64.5379 176.422 62.4892 176.342 60.476 176.068C58.4629 175.794 57.2471 175.467 56.9855 177.495Z" fill="white"/>
<path opacity="0.4" d="M62.3748 192.198L57.3462 192.573L62.6029 196.262L62.3748 192.198Z" fill="black"/>
<path d="M56.3662 169.471C57.1267 169.471 57.7432 168.85 57.7432 168.083C57.7432 167.317 57.1267 166.696 56.3662 166.696C55.6058 166.696 54.9893 167.317 54.9893 168.083C54.9893 168.85 55.6058 169.471 56.3662 169.471Z" fill="#001833"/>
<path d="M65.9985 166.73C66.759 166.73 67.3755 166.109 67.3755 165.343C67.3755 164.577 66.759 163.956 65.9985 163.956C65.2381 163.956 64.6216 164.577 64.6216 165.343C64.6216 166.109 65.2381 166.73 65.9985 166.73Z" fill="#001833"/>
<path d="M41.3516 245.452L46.8594 249.173C46.8594 249.173 46.6146 262.409 52.3923 261.702C52.3923 261.702 52.4154 263.794 53.5893 263.994C54.7633 264.194 57.963 259.257 57.963 259.257C57.963 259.257 62.3575 257.587 63.226 253.311C64.0944 249.036 64.2534 238.937 62.8974 238.176C61.5414 237.415 48.1631 237.082 48.1631 237.082C48.1631 237.082 42.6092 237.761 41.3516 245.452Z" fill="#FFCCD7"/>
<path d="M50.6428 235.391L28.4336 227.131" stroke="#CCE3FF" stroke-linecap="square"/>
<path d="M32.8428 228.366L45.3045 213.085" stroke="#CCE3FF" stroke-linecap="square"/>
<path d="M41.3179 246.025C41.3179 246.025 40.7383 237.99 51.0466 235.515" stroke="#CCE3FF" stroke-linecap="square"/>
<path d="M62.0874 163.214L65.1427 170.46L62.5896 171.569" stroke="#001833" stroke-linecap="square"/>
</svg>
